%TF.GenerationSoftware,KiCad,Pcbnew,7.0.8*%
%TF.CreationDate,2023-10-14T21:27:47-05:00*%
%TF.ProjectId,buinchiez40,6275696e-6368-4696-957a-34302e6b6963,rev?*%
%TF.SameCoordinates,Original*%
%TF.FileFunction,Plated,1,2,PTH,Mixed*%
%TF.FilePolarity,Positive*%
%FSLAX46Y46*%
G04 Gerber Fmt 4.6, Leading zero omitted, Abs format (unit mm)*
G04 Created by KiCad (PCBNEW 7.0.8) date 2023-10-14 21:27:47*
%MOMM*%
%LPD*%
G01*
G04 APERTURE LIST*
%TA.AperFunction,ViaDrill*%
%ADD10C,0.400000*%
%TD*%
G04 aperture for slot hole*
%TA.AperFunction,ComponentDrill*%
%ADD11O,1.000000X0.500000*%
%TD*%
%TA.AperFunction,ComponentDrill*%
%ADD12C,1.000000*%
%TD*%
%TA.AperFunction,ComponentDrill*%
%ADD13C,2.000000*%
%TD*%
G04 APERTURE END LIST*
D10*
X87500000Y-63000000D03*
X97500000Y-67474616D03*
X107500000Y-69000000D03*
X112500000Y-68250000D03*
X117500000Y-73000000D03*
X122500000Y-68250000D03*
X123000000Y-71750000D03*
X123000000Y-75000000D03*
X127500000Y-73449500D03*
X128250000Y-71750000D03*
X128250000Y-77250000D03*
X128250000Y-83500000D03*
X128525500Y-78699500D03*
X129250000Y-58500000D03*
X129250000Y-93750000D03*
X130012299Y-82237701D03*
X130200000Y-61700000D03*
X130209620Y-65000000D03*
X131250000Y-76750000D03*
X131500000Y-83500000D03*
X133000000Y-66000000D03*
X133750000Y-62500000D03*
X133750000Y-86500000D03*
X137250000Y-91750000D03*
X140000000Y-87500000D03*
X141250000Y-94250000D03*
X142250000Y-88250000D03*
X143750000Y-86500000D03*
X146250000Y-87500000D03*
X148750000Y-88250000D03*
X152500000Y-85000000D03*
X155250000Y-75250000D03*
X155250000Y-84250000D03*
X156000000Y-66000000D03*
X156000000Y-72750000D03*
X156000000Y-82750000D03*
X157500000Y-73500000D03*
X158250000Y-81750000D03*
X158250000Y-83250000D03*
X159500000Y-61750000D03*
X159500000Y-65000000D03*
X159500000Y-72750000D03*
X162500000Y-57500000D03*
X165000000Y-73250000D03*
X165000000Y-76750000D03*
X182500000Y-62750000D03*
X192500000Y-66550500D03*
D11*
%TO.C,SW1*%
X87500000Y-60000000D03*
%TO.C,SW11*%
X87500000Y-70000000D03*
%TO.C,SW21*%
X87500000Y-80000000D03*
%TO.C,SW31*%
X87500000Y-90000000D03*
%TO.C,SW1*%
X92500000Y-60000000D03*
%TO.C,SW11*%
X92500000Y-70000000D03*
%TO.C,SW21*%
X92500000Y-80000000D03*
%TO.C,SW31*%
X92500000Y-90000000D03*
%TO.C,SW2*%
X97500000Y-60000000D03*
%TO.C,SW12*%
X97500000Y-70000000D03*
%TO.C,SW22*%
X97500000Y-80000000D03*
%TO.C,SW32*%
X97500000Y-90000000D03*
%TO.C,SW2*%
X102500000Y-60000000D03*
%TO.C,SW12*%
X102500000Y-70000000D03*
%TO.C,SW22*%
X102500000Y-80000000D03*
%TO.C,SW32*%
X102500000Y-90000000D03*
%TO.C,SW3*%
X107500000Y-60000000D03*
%TO.C,SW13*%
X107500000Y-70000000D03*
%TO.C,SW23*%
X107500000Y-80000000D03*
%TO.C,SW33*%
X107500000Y-90000000D03*
%TO.C,SW3*%
X112500000Y-60000000D03*
%TO.C,SW13*%
X112500000Y-70000000D03*
%TO.C,SW23*%
X112500000Y-80000000D03*
%TO.C,SW33*%
X112500000Y-90000000D03*
%TO.C,SW4*%
X117500000Y-60000000D03*
%TO.C,SW14*%
X117500000Y-70000000D03*
%TO.C,SW24*%
X117500000Y-80000000D03*
%TO.C,SW34*%
X117500000Y-90000000D03*
%TO.C,SW4*%
X122500000Y-60000000D03*
%TO.C,SW14*%
X122500000Y-70000000D03*
%TO.C,SW24*%
X122500000Y-80000000D03*
%TO.C,SW34*%
X122500000Y-90000000D03*
%TO.C,SW5*%
X127500000Y-60000000D03*
%TO.C,SW15*%
X127500000Y-70000000D03*
%TO.C,SW25*%
X127500000Y-80000000D03*
%TO.C,SW35*%
X127500000Y-90000000D03*
%TO.C,SW5*%
X132500000Y-60000000D03*
%TO.C,SW15*%
X132500000Y-70000000D03*
%TO.C,SW25*%
X132500000Y-80000000D03*
%TO.C,SW35*%
X132500000Y-90000000D03*
%TO.C,SW6*%
X157500000Y-60000000D03*
%TO.C,SW16*%
X157500000Y-70000000D03*
%TO.C,SW26*%
X157500000Y-80000000D03*
%TO.C,SW36*%
X157500000Y-90000000D03*
%TO.C,SW6*%
X162500000Y-60000000D03*
%TO.C,SW16*%
X162500000Y-70000000D03*
%TO.C,SW26*%
X162500000Y-80000000D03*
%TO.C,SW36*%
X162500000Y-90000000D03*
%TO.C,SW7*%
X167500000Y-60000000D03*
%TO.C,SW17*%
X167500000Y-70000000D03*
%TO.C,SW27*%
X167500000Y-80000000D03*
%TO.C,SW37*%
X167500000Y-90000000D03*
%TO.C,SW7*%
X172500000Y-60000000D03*
%TO.C,SW17*%
X172500000Y-70000000D03*
%TO.C,SW27*%
X172500000Y-80000000D03*
%TO.C,SW37*%
X172500000Y-90000000D03*
%TO.C,SW8*%
X177500000Y-60000000D03*
%TO.C,SW18*%
X177500000Y-70000000D03*
%TO.C,SW28*%
X177500000Y-80000000D03*
%TO.C,SW38*%
X177500000Y-90000000D03*
%TO.C,SW8*%
X182500000Y-60000000D03*
%TO.C,SW18*%
X182500000Y-70000000D03*
%TO.C,SW28*%
X182500000Y-80000000D03*
%TO.C,SW38*%
X182500000Y-90000000D03*
%TO.C,SW9*%
X187500000Y-60000000D03*
%TO.C,SW19*%
X187500000Y-70000000D03*
%TO.C,SW29*%
X187500000Y-80000000D03*
%TO.C,SW39*%
X187500000Y-90000000D03*
%TO.C,SW9*%
X192500000Y-60000000D03*
%TO.C,SW19*%
X192500000Y-70000000D03*
%TO.C,SW29*%
X192500000Y-80000000D03*
%TO.C,SW39*%
X192500000Y-90000000D03*
%TO.C,SW10*%
X197500000Y-60000000D03*
%TO.C,SW20*%
X197500000Y-70000000D03*
%TO.C,SW30*%
X197500000Y-80000000D03*
%TO.C,SW40*%
X197500000Y-90000000D03*
%TO.C,SW10*%
X202500000Y-60000000D03*
%TO.C,SW20*%
X202500000Y-70000000D03*
%TO.C,SW30*%
X202500000Y-80000000D03*
%TO.C,SW40*%
X202500000Y-90000000D03*
D12*
%TO.C,U1*%
X137380000Y-57460000D03*
X137380000Y-60000000D03*
X137380000Y-62540000D03*
X137380000Y-65080000D03*
X137380000Y-67620000D03*
X137380000Y-70160000D03*
X137380000Y-72700000D03*
X137380000Y-75240000D03*
X137380000Y-77780000D03*
X139920000Y-77780000D03*
%TO.C,J1*%
X141210000Y-92000000D03*
%TO.C,U1*%
X142460000Y-77780000D03*
%TO.C,J1*%
X143750000Y-92000000D03*
%TO.C,U1*%
X145000000Y-77780000D03*
%TO.C,J1*%
X146290000Y-92000000D03*
%TO.C,U1*%
X147540000Y-77780000D03*
%TO.C,J1*%
X148830000Y-92000000D03*
%TO.C,U1*%
X150080000Y-77780000D03*
X152620000Y-57460000D03*
X152620000Y-60000000D03*
X152620000Y-62540000D03*
X152620000Y-65080000D03*
X152620000Y-67620000D03*
X152620000Y-70160000D03*
X152620000Y-72700000D03*
X152620000Y-75240000D03*
X152620000Y-77780000D03*
D13*
%TO.C,H1*%
X95000000Y-65000000D03*
%TO.C,H5*%
X95000000Y-85000000D03*
%TO.C,H2*%
X125000000Y-65000000D03*
%TO.C,H6*%
X125000000Y-85000000D03*
%TO.C,H3*%
X165000000Y-65000000D03*
%TO.C,H7*%
X165000000Y-85000000D03*
%TO.C,H4*%
X195000000Y-65000000D03*
%TO.C,H8*%
X195000000Y-85000000D03*
M02*
