<?xml version="1.0" standalone="no"?>
 <!DOCTYPE svg PUBLIC "-//W3C//DTD SVG 1.1//EN" 
 "http://www.w3.org/Graphics/SVG/1.1/DTD/svg11.dtd"> 
<svg
  xmlns:svg="http://www.w3.org/2000/svg"
  xmlns="http://www.w3.org/2000/svg"
  xmlns:xlink="http://www.w3.org/1999/xlink"
  version="1.1"
  width="297.0022mm" height="210.0072mm" viewBox="0.0000 0.0000 297.0022 210.0072">
<title>SVG Image created as buinchiez40-NPTH-drl-drl_map.svg date 2023/11/24 20:45:18 </title>
  <desc>Image generated by PCBNEW </desc>
<g style="fill:#000000; fill-opacity:1.0000;stroke:#000000; stroke-opacity:1.0000;
stroke-linecap:round; stroke-linejoin:round;"
 transform="translate(0 0) scale(1 1)">
</g>
<g style="fill:#000000; fill-opacity:0.0; 
stroke:#000000; stroke-width:0.0000; stroke-opacity:1; 
stroke-linecap:round; stroke-linejoin:round;">
</g>
<g style="fill:#000000; fill-opacity:0.0; 
stroke:#000000; stroke-width:0.2306; stroke-opacity:1; 
stroke-linecap:round; stroke-linejoin:round;">
<path d="M286.8869 28.4057 A11.5321 11.5321 0.0 0 0 275.3547 16.8736" />
<path d="M10.1153 97.5986 A11.5321 11.5321 0.0 0 0 21.6475 109.1308" />
<path d="M199.2426 109.1308
L275.3547 109.1308
" />
<path d="M190.0168 16.8736 A4.6129 4.6129 0.0 0 0 199.2426 16.8736" />
<path d="M97.7596 16.8736
L21.6475 16.8736
" />
<path d="M21.6475 109.1308
L97.7596 109.1308
" />
<path d="M133.0480 18.0268 A1.1532 1.1532 0.0 0 0 131.8948 16.8736" />
<path d="M275.3547 109.1308 A11.5321 11.5321 0.0 0 0 286.8869 97.5986" />
<path d="M106.9854 109.1308 A4.6129 4.6129 0.0 0 0 97.7596 109.1308" />
<path d="M165.1074 16.8736
L190.0168 16.8736
" />
<path d="M21.6475 16.8736 A11.5321 11.5321 0.0 0 0 10.1153 28.4057" />
<path d="M106.9854 109.1308
L190.0168 109.1308
" />
<path d="M97.7596 16.8736 A4.6129 4.6129 0.0 0 0 106.9854 16.8736" />
<path d="M275.3547 16.8736
L199.2426 16.8736
" />
<path d="M165.1074 16.8736 A1.1532 1.1532 0.0 0 0 163.9542 18.0268" />
<path d="M163.9542 18.9955
L163.9542 18.0268
" />
<path d="M10.1153 28.4057
L10.1153 97.5986
" />
<path d="M131.8948 16.8736
L106.9854 16.8736
" />
<path d="M133.0480 18.9955
L133.0480 18.0268
" />
<path d="M286.8869 97.5986
L286.8869 28.4057
" />
<path d="M199.2426 109.1308 A4.6129 4.6129 0.0 0 0 190.0168 109.1308" />
</g>
<g style="fill:#000000; fill-opacity:0.0; 
stroke:#000000; stroke-width:0.4613; stroke-opacity:1; 
stroke-linecap:round; stroke-linejoin:round;">
</g>
<g style="fill:#000000; fill-opacity:0.0; 
stroke:#000000; stroke-width:0.2000; stroke-opacity:1; 
stroke-linecap:round; stroke-linejoin:round;">
<text x="12.0000" y="112.4461"
textLength="14.8667" font-size="2.6667" lengthAdjust="spacingAndGlyphs"
text-anchor="start" opacity="0">Drill Map:</text>
<g class="stroked-text"><desc>Drill Map:</desc>
<path d="M12.6078 112.3609
L12.6078 110.3609
" />
<path d="M12.6078 110.3609
L13.0840 110.3609
" />
<path d="M13.0840 110.3609
L13.3697 110.4561
" />
<path d="M13.3697 110.4561
L13.5601 110.6466
" />
<path d="M13.5601 110.6466
L13.6554 110.8371
" />
<path d="M13.6554 110.8371
L13.7506 111.2181
" />
<path d="M13.7506 111.2181
L13.7506 111.5038
" />
<path d="M13.7506 111.5038
L13.6554 111.8847
" />
<path d="M13.6554 111.8847
L13.5601 112.0752
" />
<path d="M13.5601 112.0752
L13.3697 112.2657
" />
<path d="M13.3697 112.2657
L13.0840 112.3609
" />
<path d="M13.0840 112.3609
L12.6078 112.3609
" />
<path d="M14.6078 112.3609
L14.6078 111.0276
" />
<path d="M14.6078 111.4085
L14.7030 111.2181
" />
<path d="M14.7030 111.2181
L14.7982 111.1228
" />
<path d="M14.7982 111.1228
L14.9887 111.0276
" />
<path d="M14.9887 111.0276
L15.1792 111.0276
" />
<path d="M15.8459 112.3609
L15.8459 111.0276
" />
<path d="M15.8459 110.3609
L15.7506 110.4561
" />
<path d="M15.7506 110.4561
L15.8459 110.5514
" />
<path d="M15.8459 110.5514
L15.9411 110.4561
" />
<path d="M15.9411 110.4561
L15.8459 110.3609
" />
<path d="M15.8459 110.3609
L15.8459 110.5514
" />
<path d="M17.0840 112.3609
L16.8935 112.2657
" />
<path d="M16.8935 112.2657
L16.7982 112.0752
" />
<path d="M16.7982 112.0752
L16.7982 110.3609
" />
<path d="M18.1316 112.3609
L17.9411 112.2657
" />
<path d="M17.9411 112.2657
L17.8459 112.0752
" />
<path d="M17.8459 112.0752
L17.8459 110.3609
" />
<path d="M20.4173 112.3609
L20.4173 110.3609
" />
<path d="M20.4173 110.3609
L21.0840 111.7895
" />
<path d="M21.0840 111.7895
L21.7506 110.3609
" />
<path d="M21.7506 110.3609
L21.7506 112.3609
" />
<path d="M23.5601 112.3609
L23.5601 111.3133
" />
<path d="M23.5601 111.3133
L23.4649 111.1228
" />
<path d="M23.4649 111.1228
L23.2744 111.0276
" />
<path d="M23.2744 111.0276
L22.8935 111.0276
" />
<path d="M22.8935 111.0276
L22.7030 111.1228
" />
<path d="M23.5601 112.2657
L23.3697 112.3609
" />
<path d="M23.3697 112.3609
L22.8935 112.3609
" />
<path d="M22.8935 112.3609
L22.7030 112.2657
" />
<path d="M22.7030 112.2657
L22.6078 112.0752
" />
<path d="M22.6078 112.0752
L22.6078 111.8847
" />
<path d="M22.6078 111.8847
L22.7030 111.6942
" />
<path d="M22.7030 111.6942
L22.8935 111.5990
" />
<path d="M22.8935 111.5990
L23.3697 111.5990
" />
<path d="M23.3697 111.5990
L23.5601 111.5038
" />
<path d="M24.5125 111.0276
L24.5125 113.0276
" />
<path d="M24.5125 111.1228
L24.7030 111.0276
" />
<path d="M24.7030 111.0276
L25.0840 111.0276
" />
<path d="M25.0840 111.0276
L25.2744 111.1228
" />
<path d="M25.2744 111.1228
L25.3697 111.2181
" />
<path d="M25.3697 111.2181
L25.4649 111.4085
" />
<path d="M25.4649 111.4085
L25.4649 111.9800
" />
<path d="M25.4649 111.9800
L25.3697 112.1704
" />
<path d="M25.3697 112.1704
L25.2744 112.2657
" />
<path d="M25.2744 112.2657
L25.0840 112.3609
" />
<path d="M25.0840 112.3609
L24.7030 112.3609
" />
<path d="M24.7030 112.3609
L24.5125 112.2657
" />
<path d="M26.3221 112.1704
L26.4173 112.2657
" />
<path d="M26.4173 112.2657
L26.3221 112.3609
" />
<path d="M26.3221 112.3609
L26.2268 112.2657
" />
<path d="M26.2268 112.2657
L26.3221 112.1704
" />
<path d="M26.3221 112.1704
L26.3221 112.3609
" />
<path d="M26.3221 111.1228
L26.4173 111.2181
" />
<path d="M26.4173 111.2181
L26.3221 111.3133
" />
<path d="M26.3221 111.3133
L26.2268 111.2181
" />
<path d="M26.2268 111.2181
L26.3221 111.1228
" />
<path d="M26.3221 111.1228
L26.3221 111.3133
" />
</g></g> 
</svg>
