%TF.GenerationSoftware,KiCad,Pcbnew,7.0.8*%
%TF.CreationDate,2023-10-14T21:27:48-05:00*%
%TF.ProjectId,buinchiez40,6275696e-6368-4696-957a-34302e6b6963,rev?*%
%TF.SameCoordinates,Original*%
%TF.FileFunction,Legend,Bot*%
%TF.FilePolarity,Positive*%
%FSLAX46Y46*%
G04 Gerber Fmt 4.6, Leading zero omitted, Abs format (unit mm)*
G04 Created by KiCad (PCBNEW 7.0.8) date 2023-10-14 21:27:48*
%MOMM*%
%LPD*%
G01*
G04 APERTURE LIST*
%ADD10C,0.000000*%
G04 APERTURE END LIST*
D10*
G36*
X149046334Y-87924862D02*
G01*
X144994905Y-90263956D01*
X140943471Y-87924861D01*
X140943472Y-85658393D01*
X141624062Y-85658393D01*
X141627139Y-85803636D01*
X141636290Y-85947315D01*
X141651388Y-86089308D01*
X141672309Y-86229488D01*
X141698930Y-86367732D01*
X141731126Y-86503915D01*
X141768772Y-86637913D01*
X141811743Y-86769602D01*
X141859916Y-86898856D01*
X141913166Y-87025552D01*
X141971369Y-87149565D01*
X142034399Y-87270770D01*
X142102133Y-87389044D01*
X142174446Y-87504262D01*
X142251214Y-87616299D01*
X142332313Y-87725030D01*
X142344042Y-87643955D01*
X142358172Y-87563679D01*
X142374663Y-87484238D01*
X142393477Y-87405671D01*
X142414578Y-87328015D01*
X142437927Y-87251309D01*
X142462901Y-87177324D01*
X143601916Y-87177324D01*
X143602168Y-87183260D01*
X143602697Y-87189182D01*
X143603502Y-87195078D01*
X143604582Y-87200938D01*
X143605938Y-87206752D01*
X143607571Y-87212509D01*
X143609479Y-87218199D01*
X143611663Y-87223811D01*
X143614123Y-87229335D01*
X143616859Y-87234760D01*
X143619871Y-87240077D01*
X143623159Y-87245274D01*
X143626723Y-87250340D01*
X143630563Y-87255267D01*
X143634678Y-87260042D01*
X143639070Y-87264656D01*
X143643684Y-87269047D01*
X143648459Y-87273163D01*
X143653385Y-87277002D01*
X143658452Y-87280566D01*
X143663649Y-87283854D01*
X143668965Y-87286866D01*
X143674390Y-87289602D01*
X143679914Y-87292062D01*
X143685527Y-87294246D01*
X143691217Y-87296154D01*
X143696974Y-87297787D01*
X143702788Y-87299143D01*
X143708648Y-87300224D01*
X143714544Y-87301028D01*
X143720465Y-87301557D01*
X143726401Y-87301809D01*
X143732341Y-87301786D01*
X143738276Y-87301487D01*
X143744193Y-87300912D01*
X143750084Y-87300061D01*
X143755937Y-87298934D01*
X143761742Y-87297531D01*
X143767489Y-87295853D01*
X143773167Y-87293898D01*
X143778765Y-87291667D01*
X143784273Y-87289161D01*
X143789681Y-87286378D01*
X143794978Y-87283320D01*
X143800154Y-87279986D01*
X143805198Y-87276376D01*
X143810100Y-87272489D01*
X143814849Y-87268327D01*
X143814858Y-87268337D01*
X143814867Y-87268347D01*
X143814886Y-87268366D01*
X143814906Y-87268386D01*
X143814925Y-87268405D01*
X143818675Y-87264656D01*
X144099950Y-86983380D01*
X144384976Y-87268405D01*
X144385014Y-87268366D01*
X144385033Y-87268347D01*
X144385053Y-87268327D01*
X144389802Y-87272489D01*
X144394703Y-87276376D01*
X144399747Y-87279986D01*
X144404923Y-87283320D01*
X144410220Y-87286378D01*
X144415628Y-87289161D01*
X144421136Y-87291667D01*
X144426734Y-87293898D01*
X144432412Y-87295853D01*
X144438158Y-87297531D01*
X144443963Y-87298934D01*
X144449816Y-87300061D01*
X144455707Y-87300912D01*
X144461625Y-87301487D01*
X144467559Y-87301786D01*
X144473499Y-87301809D01*
X144479435Y-87301557D01*
X144485357Y-87301028D01*
X144491253Y-87300224D01*
X144497113Y-87299143D01*
X144502927Y-87297787D01*
X144508684Y-87296154D01*
X144514374Y-87294246D01*
X144519986Y-87292062D01*
X144525510Y-87289602D01*
X144530936Y-87286866D01*
X144536252Y-87283854D01*
X144541449Y-87280566D01*
X144546516Y-87277002D01*
X144551442Y-87273163D01*
X144556217Y-87269047D01*
X144560831Y-87264656D01*
X144565222Y-87260042D01*
X144569338Y-87255267D01*
X144573178Y-87250340D01*
X144576742Y-87245274D01*
X144580030Y-87240077D01*
X144583042Y-87234760D01*
X144585778Y-87229335D01*
X144588238Y-87223811D01*
X144590422Y-87218199D01*
X144592330Y-87212509D01*
X144593963Y-87206752D01*
X144595319Y-87200938D01*
X144596400Y-87195078D01*
X144597204Y-87189182D01*
X144597733Y-87183260D01*
X144597986Y-87177324D01*
X144597962Y-87171384D01*
X144597663Y-87165450D01*
X144597088Y-87159532D01*
X144596237Y-87153641D01*
X144595110Y-87147788D01*
X144593708Y-87141983D01*
X144592029Y-87136237D01*
X144590074Y-87130559D01*
X144587844Y-87124961D01*
X144585337Y-87119452D01*
X144582555Y-87114045D01*
X144579497Y-87108748D01*
X144576162Y-87103572D01*
X144572552Y-87098528D01*
X144568666Y-87093627D01*
X144564504Y-87088878D01*
X144564580Y-87088800D01*
X144279556Y-86803775D01*
X144279557Y-86803774D01*
X145238074Y-86803774D01*
X145238231Y-86810142D01*
X145238697Y-86816429D01*
X145239466Y-86822627D01*
X145240528Y-86828730D01*
X145241878Y-86834729D01*
X145243508Y-86840618D01*
X145245409Y-86846390D01*
X145247576Y-86852035D01*
X145250000Y-86857548D01*
X145252674Y-86862921D01*
X145255591Y-86868146D01*
X145258743Y-86873216D01*
X145262122Y-86878124D01*
X145265723Y-86882862D01*
X145269536Y-86887423D01*
X145273554Y-86891799D01*
X145277771Y-86895983D01*
X145282179Y-86899968D01*
X145286770Y-86903746D01*
X145291537Y-86907309D01*
X145296473Y-86910651D01*
X145301569Y-86913764D01*
X145306820Y-86916641D01*
X145312217Y-86919273D01*
X145317752Y-86921654D01*
X145323420Y-86923777D01*
X145329211Y-86925634D01*
X145335119Y-86927217D01*
X145341136Y-86928519D01*
X145347256Y-86929532D01*
X145353469Y-86930250D01*
X145359770Y-86930665D01*
X145359770Y-86930774D01*
X145762858Y-86930774D01*
X145762858Y-87177324D01*
X145762858Y-87333860D01*
X145762966Y-87333860D01*
X145763381Y-87340161D01*
X145764099Y-87346375D01*
X145765113Y-87352494D01*
X145766415Y-87358512D01*
X145767998Y-87364420D01*
X145769855Y-87370211D01*
X145771977Y-87375879D01*
X145774359Y-87381414D01*
X145776991Y-87386811D01*
X145779868Y-87392062D01*
X145782981Y-87397158D01*
X145786322Y-87402094D01*
X145789886Y-87406861D01*
X145793664Y-87411452D01*
X145797649Y-87415860D01*
X145801833Y-87420077D01*
X145806209Y-87424095D01*
X145810770Y-87427908D01*
X145815507Y-87431508D01*
X145820415Y-87434888D01*
X145825485Y-87438040D01*
X145830710Y-87440957D01*
X145836083Y-87443631D01*
X145841596Y-87446055D01*
X145847242Y-87448221D01*
X145853013Y-87450123D01*
X145858901Y-87451752D01*
X145864901Y-87453102D01*
X145871004Y-87454165D01*
X145877202Y-87454933D01*
X145883489Y-87455400D01*
X145889856Y-87455557D01*
X145896224Y-87455400D01*
X145902511Y-87454933D01*
X145908709Y-87454165D01*
X145914812Y-87453102D01*
X145920812Y-87451752D01*
X145926701Y-87450123D01*
X145932472Y-87448221D01*
X145938117Y-87446055D01*
X145943630Y-87443631D01*
X145949003Y-87440957D01*
X145954228Y-87438040D01*
X145959299Y-87434888D01*
X145964206Y-87431508D01*
X145968944Y-87427908D01*
X145973505Y-87424095D01*
X145977881Y-87420077D01*
X145982066Y-87415860D01*
X145986050Y-87411452D01*
X145989828Y-87406861D01*
X145993392Y-87402094D01*
X145996734Y-87397158D01*
X145999847Y-87392062D01*
X146002723Y-87386811D01*
X146005356Y-87381414D01*
X146007737Y-87375879D01*
X146009860Y-87370211D01*
X146011716Y-87364420D01*
X146013299Y-87358512D01*
X146014601Y-87352494D01*
X146015615Y-87346375D01*
X146016333Y-87340161D01*
X146016748Y-87333860D01*
X146016856Y-87333860D01*
X146016856Y-86930774D01*
X146419943Y-86930774D01*
X146419943Y-86930665D01*
X146426244Y-86930250D01*
X146432458Y-86929532D01*
X146438577Y-86928519D01*
X146444594Y-86927217D01*
X146450502Y-86925634D01*
X146456294Y-86923777D01*
X146461961Y-86921654D01*
X146467497Y-86919273D01*
X146472893Y-86916641D01*
X146478144Y-86913764D01*
X146483241Y-86910651D01*
X146488176Y-86907309D01*
X146492943Y-86903746D01*
X146497534Y-86899968D01*
X146501942Y-86895983D01*
X146506159Y-86891799D01*
X146510178Y-86887423D01*
X146513991Y-86882862D01*
X146517591Y-86878124D01*
X146520971Y-86873216D01*
X146524122Y-86868146D01*
X146527039Y-86862921D01*
X146529713Y-86857548D01*
X146532137Y-86852035D01*
X146534304Y-86846390D01*
X146536206Y-86840618D01*
X146537835Y-86834729D01*
X146539185Y-86828730D01*
X146540248Y-86822627D01*
X146541016Y-86816429D01*
X146541482Y-86810142D01*
X146541639Y-86803774D01*
X146541482Y-86797406D01*
X146541016Y-86791120D01*
X146540248Y-86784921D01*
X146539185Y-86778818D01*
X146537835Y-86772819D01*
X146536206Y-86766930D01*
X146534304Y-86761159D01*
X146532137Y-86755513D01*
X146529713Y-86750000D01*
X146527039Y-86744628D01*
X146524123Y-86739403D01*
X146520971Y-86734332D01*
X146517591Y-86729425D01*
X146513991Y-86724687D01*
X146510178Y-86720126D01*
X146506159Y-86715750D01*
X146501942Y-86711566D01*
X146497535Y-86707581D01*
X146492944Y-86703803D01*
X146488177Y-86700240D01*
X146483241Y-86696898D01*
X146478144Y-86693785D01*
X146472894Y-86690908D01*
X146467497Y-86688276D01*
X146461961Y-86685895D01*
X146456294Y-86683772D01*
X146450503Y-86681915D01*
X146444595Y-86680332D01*
X146438577Y-86679030D01*
X146432458Y-86678017D01*
X146426244Y-86677299D01*
X146419943Y-86676884D01*
X146419943Y-86676775D01*
X146016856Y-86676775D01*
X146016856Y-86273688D01*
X146016748Y-86273688D01*
X146016333Y-86267387D01*
X146015615Y-86261173D01*
X146014601Y-86255054D01*
X146013299Y-86249036D01*
X146011716Y-86243128D01*
X146009860Y-86237337D01*
X146007737Y-86231670D01*
X146005356Y-86226134D01*
X146002723Y-86220737D01*
X145999847Y-86215486D01*
X145996734Y-86210390D01*
X145993392Y-86205454D01*
X145989828Y-86200687D01*
X145986050Y-86196096D01*
X145982066Y-86191688D01*
X145977881Y-86187471D01*
X145973505Y-86183453D01*
X145968944Y-86179639D01*
X145964206Y-86176039D01*
X145959299Y-86172660D01*
X145954228Y-86169508D01*
X145949003Y-86166591D01*
X145943630Y-86163917D01*
X145938117Y-86161493D01*
X145932472Y-86159326D01*
X145926701Y-86157424D01*
X145920812Y-86155795D01*
X145914812Y-86154445D01*
X145908709Y-86153382D01*
X145902511Y-86152614D01*
X145896224Y-86152148D01*
X145889856Y-86151991D01*
X145883489Y-86152148D01*
X145877202Y-86152614D01*
X145871004Y-86153382D01*
X145864901Y-86154445D01*
X145858901Y-86155795D01*
X145853012Y-86157424D01*
X145847241Y-86159326D01*
X145841596Y-86161493D01*
X145836083Y-86163917D01*
X145830710Y-86166591D01*
X145825485Y-86169508D01*
X145820415Y-86172660D01*
X145815507Y-86176039D01*
X145810769Y-86179639D01*
X145806208Y-86183453D01*
X145801832Y-86187471D01*
X145797648Y-86191688D01*
X145793663Y-86196096D01*
X145789885Y-86200687D01*
X145786322Y-86205454D01*
X145782980Y-86210390D01*
X145779867Y-86215486D01*
X145776990Y-86220737D01*
X145774358Y-86226134D01*
X145771976Y-86231670D01*
X145769854Y-86237337D01*
X145767997Y-86243128D01*
X145766414Y-86249036D01*
X145765112Y-86255054D01*
X145764098Y-86261173D01*
X145763380Y-86267387D01*
X145762965Y-86273688D01*
X145762858Y-86273688D01*
X145762858Y-86676776D01*
X145364917Y-86676776D01*
X145359770Y-86676775D01*
X145359770Y-86676882D01*
X145353469Y-86677297D01*
X145347256Y-86678015D01*
X145341136Y-86679029D01*
X145335119Y-86680331D01*
X145329211Y-86681914D01*
X145323420Y-86683771D01*
X145317752Y-86685893D01*
X145312217Y-86688275D01*
X145306820Y-86690907D01*
X145301569Y-86693784D01*
X145296473Y-86696897D01*
X145291537Y-86700239D01*
X145286770Y-86703802D01*
X145282179Y-86707580D01*
X145277771Y-86711565D01*
X145273554Y-86715749D01*
X145269536Y-86720125D01*
X145265723Y-86724686D01*
X145262122Y-86729424D01*
X145258743Y-86734332D01*
X145255591Y-86739402D01*
X145252674Y-86744627D01*
X145250000Y-86750000D01*
X145247576Y-86755513D01*
X145245409Y-86761158D01*
X145243508Y-86766929D01*
X145241878Y-86772818D01*
X145240528Y-86778818D01*
X145239466Y-86784921D01*
X145238697Y-86791119D01*
X145238231Y-86797406D01*
X145238074Y-86803774D01*
X144279557Y-86803774D01*
X144560831Y-86522499D01*
X144564581Y-86518749D01*
X144564504Y-86518672D01*
X144568666Y-86513924D01*
X144572552Y-86509022D01*
X144576162Y-86503978D01*
X144579497Y-86498802D01*
X144582555Y-86493505D01*
X144585337Y-86488097D01*
X144587844Y-86482589D01*
X144590074Y-86476991D01*
X144592029Y-86471313D01*
X144593708Y-86465566D01*
X144595110Y-86459761D01*
X144596237Y-86453908D01*
X144597088Y-86448018D01*
X144597663Y-86442100D01*
X144597962Y-86436166D01*
X144597986Y-86430225D01*
X144597733Y-86424289D01*
X144597204Y-86418368D01*
X144596400Y-86412472D01*
X144595319Y-86406612D01*
X144593963Y-86400798D01*
X144592330Y-86395041D01*
X144590422Y-86389351D01*
X144588238Y-86383739D01*
X144585778Y-86378214D01*
X144583042Y-86372789D01*
X144580030Y-86367473D01*
X144576742Y-86362276D01*
X144573178Y-86357209D01*
X144569338Y-86352283D01*
X144565222Y-86347507D01*
X144560831Y-86342893D01*
X144556217Y-86338502D01*
X144551442Y-86334386D01*
X144546516Y-86330547D01*
X144541449Y-86326983D01*
X144536252Y-86323695D01*
X144530936Y-86320683D01*
X144525510Y-86317947D01*
X144519986Y-86315487D01*
X144514374Y-86313303D01*
X144508684Y-86311394D01*
X144502927Y-86309762D01*
X144497113Y-86308406D01*
X144491253Y-86307325D01*
X144485357Y-86306521D01*
X144479435Y-86305992D01*
X144473499Y-86305739D01*
X144467559Y-86305762D01*
X144461625Y-86306062D01*
X144455707Y-86306637D01*
X144449816Y-86307487D01*
X144443963Y-86308614D01*
X144438158Y-86310017D01*
X144432412Y-86311696D01*
X144426734Y-86313651D01*
X144421136Y-86315881D01*
X144415628Y-86318388D01*
X144410220Y-86321170D01*
X144404923Y-86324228D01*
X144399747Y-86327563D01*
X144394703Y-86331173D01*
X144389802Y-86335059D01*
X144385053Y-86339221D01*
X144384976Y-86339144D01*
X144381225Y-86342893D01*
X144099950Y-86624170D01*
X143818673Y-86342895D01*
X143818619Y-86342839D01*
X143818592Y-86342811D01*
X143818564Y-86342784D01*
X143814927Y-86339144D01*
X143814916Y-86339153D01*
X143814906Y-86339163D01*
X143814897Y-86339173D01*
X143814887Y-86339182D01*
X143814849Y-86339221D01*
X143810100Y-86335059D01*
X143805198Y-86331173D01*
X143800154Y-86327563D01*
X143794978Y-86324229D01*
X143789681Y-86321170D01*
X143784273Y-86318388D01*
X143778765Y-86315882D01*
X143773167Y-86313651D01*
X143767489Y-86311696D01*
X143761743Y-86310018D01*
X143755938Y-86308615D01*
X143750084Y-86307488D01*
X143744194Y-86306637D01*
X143738276Y-86306062D01*
X143732342Y-86305763D01*
X143726401Y-86305740D01*
X143720465Y-86305993D01*
X143714544Y-86306521D01*
X143708648Y-86307326D01*
X143702788Y-86308406D01*
X143696974Y-86309763D01*
X143691217Y-86311395D01*
X143685527Y-86313303D01*
X143679915Y-86315488D01*
X143674391Y-86317948D01*
X143668965Y-86320684D01*
X143663649Y-86323696D01*
X143658452Y-86326984D01*
X143653385Y-86330547D01*
X143648459Y-86334387D01*
X143643684Y-86338503D01*
X143639070Y-86342895D01*
X143634678Y-86347508D01*
X143630563Y-86352284D01*
X143626723Y-86357210D01*
X143623159Y-86362276D01*
X143619871Y-86367473D01*
X143616859Y-86372790D01*
X143614123Y-86378215D01*
X143611663Y-86383739D01*
X143609479Y-86389352D01*
X143607571Y-86395041D01*
X143605938Y-86400799D01*
X143604582Y-86406612D01*
X143603502Y-86412473D01*
X143602697Y-86418369D01*
X143602168Y-86424290D01*
X143601916Y-86430226D01*
X143601939Y-86436166D01*
X143602238Y-86442101D01*
X143602813Y-86448018D01*
X143603664Y-86453909D01*
X143604791Y-86459762D01*
X143606194Y-86465567D01*
X143607872Y-86471314D01*
X143609827Y-86476991D01*
X143612058Y-86482589D01*
X143614564Y-86488098D01*
X143617346Y-86493506D01*
X143620405Y-86498803D01*
X143623739Y-86503978D01*
X143627349Y-86509022D01*
X143631235Y-86513924D01*
X143635397Y-86518672D01*
X143635378Y-86518692D01*
X143635359Y-86518711D01*
X143635339Y-86518730D01*
X143635320Y-86518750D01*
X143639070Y-86522500D01*
X143920346Y-86803775D01*
X143639070Y-87085050D01*
X143635320Y-87088800D01*
X143635397Y-87088878D01*
X143631235Y-87093627D01*
X143627349Y-87098528D01*
X143623739Y-87103572D01*
X143620405Y-87108748D01*
X143617346Y-87114045D01*
X143614564Y-87119452D01*
X143612058Y-87124961D01*
X143609827Y-87130559D01*
X143607872Y-87136237D01*
X143606194Y-87141983D01*
X143604791Y-87147788D01*
X143603664Y-87153641D01*
X143602813Y-87159532D01*
X143602238Y-87165450D01*
X143601939Y-87171384D01*
X143601916Y-87177324D01*
X142462901Y-87177324D01*
X142463486Y-87175590D01*
X142491218Y-87100895D01*
X142521085Y-87027264D01*
X142553049Y-86954733D01*
X142587072Y-86883340D01*
X142623116Y-86813123D01*
X142661145Y-86744120D01*
X142701119Y-86676368D01*
X142743001Y-86609907D01*
X142786754Y-86544772D01*
X142733697Y-86502069D01*
X142683165Y-86456490D01*
X142635282Y-86408158D01*
X142590172Y-86357198D01*
X142547958Y-86303734D01*
X142508765Y-86247889D01*
X142472717Y-86189787D01*
X142439937Y-86129552D01*
X142410550Y-86067309D01*
X142384679Y-86003180D01*
X142362448Y-85937291D01*
X142343981Y-85869764D01*
X142329402Y-85800725D01*
X142318836Y-85730295D01*
X142312405Y-85658601D01*
X142310233Y-85585764D01*
X142311800Y-85523861D01*
X142316451Y-85462767D01*
X142324109Y-85402557D01*
X142334699Y-85343309D01*
X142348145Y-85285097D01*
X142364371Y-85227998D01*
X142383302Y-85172087D01*
X142404861Y-85117440D01*
X142428973Y-85064133D01*
X142455562Y-85012241D01*
X142484553Y-84961841D01*
X142515868Y-84913008D01*
X142549433Y-84865819D01*
X142585172Y-84820348D01*
X142623009Y-84776672D01*
X142662868Y-84734867D01*
X142704674Y-84695008D01*
X142748350Y-84657171D01*
X142793820Y-84621432D01*
X142841010Y-84587867D01*
X142889843Y-84556551D01*
X142940242Y-84527561D01*
X142992134Y-84500972D01*
X143045441Y-84476860D01*
X143100088Y-84455301D01*
X143155999Y-84436370D01*
X143213098Y-84420144D01*
X143271310Y-84406698D01*
X143330558Y-84396108D01*
X143390768Y-84388450D01*
X143451862Y-84383799D01*
X143513765Y-84382232D01*
X143569900Y-84383520D01*
X143625375Y-84387346D01*
X143680136Y-84393655D01*
X143734124Y-84402389D01*
X143787285Y-84413491D01*
X143839561Y-84426907D01*
X143890897Y-84442579D01*
X143941235Y-84460450D01*
X143990519Y-84480465D01*
X144038693Y-84502567D01*
X144085700Y-84526699D01*
X144131484Y-84552805D01*
X144175989Y-84580830D01*
X144219158Y-84610715D01*
X144260934Y-84642405D01*
X144301262Y-84675843D01*
X144340084Y-84710974D01*
X144377345Y-84747740D01*
X144412988Y-84786085D01*
X144446957Y-84825953D01*
X144479194Y-84867286D01*
X144509644Y-84910030D01*
X144538251Y-84954127D01*
X144564957Y-84999521D01*
X144589706Y-85046156D01*
X144612443Y-85093975D01*
X144633110Y-85142921D01*
X144651651Y-85192939D01*
X144668010Y-85243971D01*
X144682130Y-85295962D01*
X144693955Y-85348855D01*
X144703429Y-85402594D01*
X144739403Y-85398949D01*
X144775515Y-85395779D01*
X144811762Y-85393089D01*
X144848140Y-85390880D01*
X144884646Y-85389157D01*
X144921278Y-85387922D01*
X144958031Y-85387179D01*
X144994903Y-85386931D01*
X144994904Y-85386931D01*
X145034445Y-85387216D01*
X145073849Y-85388071D01*
X145113113Y-85389490D01*
X145152231Y-85391471D01*
X145191201Y-85394008D01*
X145230018Y-85397099D01*
X145268679Y-85400739D01*
X145307179Y-85404924D01*
X145317247Y-85351918D01*
X145329608Y-85299758D01*
X145344206Y-85248498D01*
X145360987Y-85198194D01*
X145379897Y-85148901D01*
X145400879Y-85100673D01*
X145423880Y-85053566D01*
X145448844Y-85007633D01*
X145475716Y-84962931D01*
X145504442Y-84919513D01*
X145534967Y-84877435D01*
X145567236Y-84836752D01*
X145601194Y-84797519D01*
X145636785Y-84759789D01*
X145673956Y-84723620D01*
X145712651Y-84689064D01*
X145752816Y-84656178D01*
X145794395Y-84625015D01*
X145837334Y-84595631D01*
X145881578Y-84568081D01*
X145927071Y-84542420D01*
X145973760Y-84518702D01*
X146021589Y-84496983D01*
X146070503Y-84477316D01*
X146120447Y-84459758D01*
X146171367Y-84444363D01*
X146223207Y-84431186D01*
X146275913Y-84420282D01*
X146329430Y-84411705D01*
X146383703Y-84405511D01*
X146438677Y-84401754D01*
X146494298Y-84400489D01*
X146556201Y-84402056D01*
X146617295Y-84406707D01*
X146677504Y-84414365D01*
X146736753Y-84424955D01*
X146794965Y-84438401D01*
X146852064Y-84454627D01*
X146907975Y-84473558D01*
X146962622Y-84495117D01*
X147015929Y-84519229D01*
X147067820Y-84545818D01*
X147118220Y-84574809D01*
X147167053Y-84606124D01*
X147214243Y-84639689D01*
X147259713Y-84675428D01*
X147303389Y-84713265D01*
X147345195Y-84753124D01*
X147385054Y-84794930D01*
X147422891Y-84838606D01*
X147458630Y-84884076D01*
X147492195Y-84931266D01*
X147523511Y-84980099D01*
X147552501Y-85030498D01*
X147579090Y-85082390D01*
X147603202Y-85135697D01*
X147624761Y-85190344D01*
X147643692Y-85246255D01*
X147659918Y-85303354D01*
X147673364Y-85361566D01*
X147683954Y-85420815D01*
X147691612Y-85481024D01*
X147696263Y-85542118D01*
X147697830Y-85604022D01*
X147697829Y-85604022D01*
X147697829Y-85604021D01*
X147695639Y-85677171D01*
X147689153Y-85749168D01*
X147678496Y-85819889D01*
X147663794Y-85889206D01*
X147645172Y-85956994D01*
X147622756Y-86023129D01*
X147596672Y-86087483D01*
X147567044Y-86149933D01*
X147533999Y-86210352D01*
X147497662Y-86268615D01*
X147458158Y-86324596D01*
X147415614Y-86378169D01*
X147370154Y-86429210D01*
X147321903Y-86477593D01*
X147270989Y-86523192D01*
X147217536Y-86565882D01*
X147259820Y-86630103D01*
X147300300Y-86695586D01*
X147338937Y-86762297D01*
X147361392Y-86803774D01*
X147375698Y-86830199D01*
X147410546Y-86899257D01*
X147443446Y-86969436D01*
X147474363Y-87040699D01*
X147503261Y-87113012D01*
X147530104Y-87186338D01*
X147554857Y-87260643D01*
X147577484Y-87335891D01*
X147597951Y-87412046D01*
X147616220Y-87489073D01*
X147632258Y-87566936D01*
X147646028Y-87645600D01*
X147657494Y-87725029D01*
X147738593Y-87616297D01*
X147815360Y-87504261D01*
X147887673Y-87389043D01*
X147955407Y-87270770D01*
X148018438Y-87149564D01*
X148076640Y-87025551D01*
X148129890Y-86898855D01*
X148178063Y-86769601D01*
X148221034Y-86637913D01*
X148258680Y-86503915D01*
X148290876Y-86367732D01*
X148317496Y-86229488D01*
X148338418Y-86089308D01*
X148353516Y-85947315D01*
X148362666Y-85803636D01*
X148365744Y-85658393D01*
X148361355Y-85485014D01*
X148348330Y-85313902D01*
X148326882Y-85145269D01*
X148297221Y-84979326D01*
X148259562Y-84816287D01*
X148214116Y-84656364D01*
X148161095Y-84499769D01*
X148100712Y-84346714D01*
X148033179Y-84197412D01*
X147958708Y-84052075D01*
X147877513Y-83910915D01*
X147789804Y-83774145D01*
X147695795Y-83641977D01*
X147595698Y-83514623D01*
X147489724Y-83392296D01*
X147378088Y-83275208D01*
X147260999Y-83163571D01*
X147138672Y-83057598D01*
X147011318Y-82957501D01*
X146879150Y-82863492D01*
X146742380Y-82775783D01*
X146601221Y-82694587D01*
X146455883Y-82620117D01*
X146306581Y-82552584D01*
X146153527Y-82492201D01*
X145996931Y-82439180D01*
X145837008Y-82393734D01*
X145673969Y-82356075D01*
X145508027Y-82326415D01*
X145339394Y-82304966D01*
X145168281Y-82291941D01*
X144994903Y-82287552D01*
X144821524Y-82291941D01*
X144650412Y-82304966D01*
X144481779Y-82326415D01*
X144315837Y-82356075D01*
X144152798Y-82393734D01*
X143992874Y-82439180D01*
X143836279Y-82492201D01*
X143683224Y-82552584D01*
X143533922Y-82620117D01*
X143388585Y-82694587D01*
X143247426Y-82775783D01*
X143110655Y-82863492D01*
X142978487Y-82957501D01*
X142851134Y-83057598D01*
X142728806Y-83163571D01*
X142611718Y-83275208D01*
X142500081Y-83392296D01*
X142394108Y-83514623D01*
X142294011Y-83641977D01*
X142200002Y-83774145D01*
X142112293Y-83910915D01*
X142031097Y-84052075D01*
X141956627Y-84197412D01*
X141889094Y-84346714D01*
X141828711Y-84499769D01*
X141775690Y-84656364D01*
X141730244Y-84816287D01*
X141692585Y-84979326D01*
X141662924Y-85145269D01*
X141641476Y-85313902D01*
X141628451Y-85485014D01*
X141624062Y-85658393D01*
X140943472Y-85658393D01*
X140943474Y-83246669D01*
X144994902Y-80907576D01*
X149046336Y-83246670D01*
X149046335Y-85658393D01*
X149046334Y-87924862D01*
G37*
M02*
