%TF.GenerationSoftware,KiCad,Pcbnew,7.0.8*%
%TF.CreationDate,2023-10-14T21:27:48-05:00*%
%TF.ProjectId,buinchiez40,6275696e-6368-4696-957a-34302e6b6963,rev?*%
%TF.SameCoordinates,Original*%
%TF.FileFunction,Soldermask,Bot*%
%TF.FilePolarity,Negative*%
%FSLAX46Y46*%
G04 Gerber Fmt 4.6, Leading zero omitted, Abs format (unit mm)*
G04 Created by KiCad (PCBNEW 7.0.8) date 2023-10-14 21:27:48*
%MOMM*%
%LPD*%
G01*
G04 APERTURE LIST*
%ADD10C,2.500000*%
%ADD11O,2.500000X1.500000*%
%ADD12O,1.500000X2.500000*%
%ADD13O,1.524000X1.224000*%
%ADD14R,1.700000X1.700000*%
%ADD15O,1.700000X1.700000*%
G04 APERTURE END LIST*
D10*
%TO.C,H8*%
X195000000Y-85000000D03*
%TD*%
%TO.C,H7*%
X165000000Y-85000000D03*
%TD*%
%TO.C,H6*%
X125000000Y-85000000D03*
%TD*%
%TO.C,H5*%
X95000000Y-85000000D03*
%TD*%
%TO.C,H4*%
X195000000Y-65000000D03*
%TD*%
%TO.C,H3*%
X165000000Y-65000000D03*
%TD*%
%TO.C,H2*%
X125000000Y-65000000D03*
%TD*%
%TO.C,H1*%
X95000000Y-65000000D03*
%TD*%
D11*
%TO.C,U1*%
X136880000Y-57460000D03*
X136880000Y-60000000D03*
X136880000Y-62540000D03*
X136880000Y-65080000D03*
X136880000Y-67620000D03*
X136880000Y-70160000D03*
X136880000Y-72700000D03*
X136880000Y-75240000D03*
X136880000Y-77780000D03*
D12*
X139920000Y-78280000D03*
X142460000Y-78280000D03*
X145000000Y-78280000D03*
X147540000Y-78280000D03*
X150080000Y-78280000D03*
D11*
X153120000Y-77780000D03*
X153120000Y-75240000D03*
X153120000Y-72700000D03*
X153120000Y-70160000D03*
X153120000Y-67620000D03*
X153120000Y-65080000D03*
X153120000Y-62540000D03*
X153120000Y-60000000D03*
X153120000Y-57460000D03*
%TD*%
D13*
%TO.C,SW17*%
X167500000Y-70000000D03*
X172500000Y-70000000D03*
%TD*%
D14*
%TO.C,J1*%
X141210000Y-92000000D03*
D15*
X143750000Y-92000000D03*
X146290000Y-92000000D03*
X148830000Y-92000000D03*
%TD*%
D13*
%TO.C,SW38*%
X177500000Y-90000000D03*
X182500000Y-90000000D03*
%TD*%
%TO.C,SW27*%
X167500000Y-80000000D03*
X172500000Y-80000000D03*
%TD*%
%TO.C,SW28*%
X177500000Y-80000000D03*
X182500000Y-80000000D03*
%TD*%
%TO.C,SW7*%
X167500000Y-60000000D03*
X172500000Y-60000000D03*
%TD*%
%TO.C,SW6*%
X157500000Y-60000000D03*
X162500000Y-60000000D03*
%TD*%
%TO.C,SW31*%
X92500000Y-90000000D03*
X87500000Y-90000000D03*
%TD*%
%TO.C,SW23*%
X112500000Y-80000000D03*
X107500000Y-80000000D03*
%TD*%
%TO.C,SW34*%
X122500000Y-90000000D03*
X117500000Y-90000000D03*
%TD*%
%TO.C,SW1*%
X92500000Y-60000000D03*
X87500000Y-60000000D03*
%TD*%
%TO.C,SW20*%
X197500000Y-70000000D03*
X202500000Y-70000000D03*
%TD*%
%TO.C,SW35*%
X132500000Y-90000000D03*
X127500000Y-90000000D03*
%TD*%
%TO.C,SW15*%
X132500000Y-70000000D03*
X127500000Y-70000000D03*
%TD*%
%TO.C,SW12*%
X102500000Y-70000000D03*
X97500000Y-70000000D03*
%TD*%
%TO.C,SW8*%
X177500000Y-60000000D03*
X182500000Y-60000000D03*
%TD*%
%TO.C,SW2*%
X102500000Y-60000000D03*
X97500000Y-60000000D03*
%TD*%
%TO.C,SW25*%
X132500000Y-80000000D03*
X127500000Y-80000000D03*
%TD*%
%TO.C,SW3*%
X112500000Y-60000000D03*
X107500000Y-60000000D03*
%TD*%
%TO.C,SW10*%
X197500000Y-60000000D03*
X202500000Y-60000000D03*
%TD*%
%TO.C,SW9*%
X187500000Y-60000000D03*
X192500000Y-60000000D03*
%TD*%
%TO.C,SW11*%
X92500000Y-70000000D03*
X87500000Y-70000000D03*
%TD*%
%TO.C,SW21*%
X92500000Y-80000000D03*
X87500000Y-80000000D03*
%TD*%
%TO.C,SW19*%
X187500000Y-70000000D03*
X192500000Y-70000000D03*
%TD*%
%TO.C,SW14*%
X122500000Y-70000000D03*
X117500000Y-70000000D03*
%TD*%
%TO.C,SW16*%
X157500000Y-70000000D03*
X162500000Y-70000000D03*
%TD*%
%TO.C,SW26*%
X157500000Y-80000000D03*
X162500000Y-80000000D03*
%TD*%
%TO.C,SW32*%
X102500000Y-90000000D03*
X97500000Y-90000000D03*
%TD*%
%TO.C,SW30*%
X197500000Y-80000000D03*
X202500000Y-80000000D03*
%TD*%
%TO.C,SW22*%
X102500000Y-80000000D03*
X97500000Y-80000000D03*
%TD*%
%TO.C,SW37*%
X167500000Y-90000000D03*
X172500000Y-90000000D03*
%TD*%
%TO.C,SW39*%
X187500000Y-90000000D03*
X192500000Y-90000000D03*
%TD*%
%TO.C,SW5*%
X132500000Y-60000000D03*
X127500000Y-60000000D03*
%TD*%
%TO.C,SW13*%
X112500000Y-70000000D03*
X107500000Y-70000000D03*
%TD*%
%TO.C,SW29*%
X187500000Y-80000000D03*
X192500000Y-80000000D03*
%TD*%
%TO.C,SW4*%
X122500000Y-60000000D03*
X117500000Y-60000000D03*
%TD*%
%TO.C,SW18*%
X177500000Y-70000000D03*
X182500000Y-70000000D03*
%TD*%
%TO.C,SW24*%
X122500000Y-80000000D03*
X117500000Y-80000000D03*
%TD*%
%TO.C,SW33*%
X112500000Y-90000000D03*
X107500000Y-90000000D03*
%TD*%
%TO.C,SW36*%
X157500000Y-90000000D03*
X162500000Y-90000000D03*
%TD*%
%TO.C,SW40*%
X197500000Y-90000000D03*
X202500000Y-90000000D03*
%TD*%
M02*
