%TF.GenerationSoftware,KiCad,Pcbnew,(6.0.4-0)*%
%TF.CreationDate,2023-10-08T14:18:06-05:00*%
%TF.ProjectId,buinchiez40,6275696e-6368-4696-957a-34302e6b6963,rev?*%
%TF.SameCoordinates,Original*%
%TF.FileFunction,Plated,1,2,PTH,Route*%
%TF.FilePolarity,Positive*%
%FSLAX46Y46*%
G04 Gerber Fmt 4.6, Leading zero omitted, Abs format (unit mm)*
G04 Created by KiCad (PCBNEW (6.0.4-0)) date 2023-10-08 14:18:06*
%MOMM*%
%LPD*%
G01*
G04 APERTURE LIST*
G04 aperture for slot hole*
%TA.AperFunction,ComponentDrill*%
%ADD10O,0.900000X0.600000*%
%TD*%
G04 APERTURE END LIST*
D10*
%TO.C,REF\u002A\u002A*%
X87500000Y-60000000D03*
X87500000Y-70000000D03*
X87500000Y-80000000D03*
X87500000Y-90000000D03*
X92500000Y-60000000D03*
X92500000Y-70000000D03*
X92500000Y-80000000D03*
X92500000Y-90000000D03*
X97500000Y-60000000D03*
X97500000Y-70000000D03*
X97500000Y-80000000D03*
X97500000Y-90000000D03*
X102500000Y-60000000D03*
X102500000Y-70000000D03*
X102500000Y-80000000D03*
X102500000Y-90000000D03*
X107500000Y-60000000D03*
X107500000Y-70000000D03*
X107500000Y-80000000D03*
X107500000Y-90000000D03*
X112500000Y-60000000D03*
X112500000Y-70000000D03*
X112500000Y-80000000D03*
X112500000Y-90000000D03*
X117500000Y-60000000D03*
X117500000Y-70000000D03*
X117500000Y-80000000D03*
X117500000Y-90000000D03*
X122500000Y-60000000D03*
X122500000Y-70000000D03*
X122500000Y-80000000D03*
X122500000Y-90000000D03*
X127500000Y-60000000D03*
X127500000Y-70000000D03*
X127500000Y-80000000D03*
X127500000Y-90000000D03*
X132500000Y-60000000D03*
X132500000Y-70000000D03*
X132500000Y-80000000D03*
X132500000Y-90000000D03*
X137500000Y-90000000D03*
X142500000Y-90000000D03*
X147500000Y-90000000D03*
X152500000Y-90000000D03*
X157500000Y-60000000D03*
X157500000Y-70000000D03*
X157500000Y-80000000D03*
X157500000Y-90000000D03*
X162500000Y-60000000D03*
X162500000Y-70000000D03*
X162500000Y-80000000D03*
X162500000Y-90000000D03*
X167500000Y-60000000D03*
X167500000Y-70000000D03*
X167500000Y-80000000D03*
X167500000Y-90000000D03*
X172500000Y-60000000D03*
X172500000Y-70000000D03*
X172500000Y-80000000D03*
X172500000Y-90000000D03*
X177500000Y-60000000D03*
X177500000Y-70000000D03*
X177500000Y-80000000D03*
X177500000Y-90000000D03*
X182500000Y-60000000D03*
X182500000Y-70000000D03*
X182500000Y-80000000D03*
X182500000Y-90000000D03*
X187500000Y-60000000D03*
X187500000Y-70000000D03*
X187500000Y-80000000D03*
X187500000Y-90000000D03*
X192500000Y-60000000D03*
X192500000Y-70000000D03*
X192500000Y-80000000D03*
X192500000Y-90000000D03*
X197500000Y-60000000D03*
X197500000Y-70000000D03*
X197500000Y-80000000D03*
X197500000Y-90000000D03*
X202500000Y-60000000D03*
X202500000Y-70000000D03*
X202500000Y-80000000D03*
X202500000Y-90000000D03*
M02*
