  0
SECTION
  2
HEADER
  9
$ANGBASE
  50
0.0
  9
$ANGDIR
  70
1
  9
$MEASUREMENT
  70
1
  0
ENDSEC
  0
SECTION
  2
TABLES
  0
TABLE
  2
LTYPE
  70
4
  0
LTYPE
  5
40F
  2
CONTINUOUS
  70
0
  3
Solid line
  72
65
  73
0
  40
0.0
  0
LTYPE
  5
410
  2
DASHDOT
 70
0
  3
Dash Dot ____ _ ____ _
 72
65
 73
4
 40
2.0
 49
1.25
 49
-0.25
 49
0.25
 49
-0.25
  0
LTYPE
  5
411
  2
DASHED
 70
0
  3
Dashed __ __ __ __ __
 72
65
 73
2
 40
0.75
 49
0.5
 49
-0.25
  0
LTYPE
  5
43B
  2
DOTTED
 70
0
  3
Dotted .  .  .  .
 72
65
 73
2
 40
0.2
 49
0.0
 49
-0.2
  0
ENDTAB
  0
TABLE
  2
STYLE
  70
4
  0
STYLE
  2
KICAD
  70
0
  40
0
  41
1
  42
1
  50
0
  71
0
  3
isocp.shx
  0
STYLE
  2
KICADB
  70
0
  40
0
  41
1
  42
1
  50
0
  71
0
  3
isocp.shx
  0
STYLE
  2
KICADI
  70
0
  40
0
  41
1
  42
1
  50
15
  71
0
  3
isocp.shx
  0
STYLE
  2
KICADBI
  70
0
  40
0
  41
1
  42
1
  50
15
  71
0
  3
isocp.shx
  0
ENDTAB
  0
TABLE
  2
LAYER
  70
1
  0
LAYER
  2
BLACK
  70
0
  62
7
  6
CONTINUOUS
  0
ENDTAB
  0
ENDSEC
  0
SECTION
  2
ENTITIES
0
LINE
8
BLACK
6
CONTINUOUS
10
90
20
-95
11
200
21
-95
0
LINE
8
BLACK
6
CONTINUOUS
10
85
20
-60
11
85
21
-90
0
LINE
8
BLACK
6
CONTINUOUS
10
200
20
-55
11
90
21
-55
0
LINE
8
BLACK
6
CONTINUOUS
10
205
20
-90
11
205
21
-60
0
ARC
8
BLACK
10
200
20
-90
40
5
50
-90
51
-0
0
ARC
8
BLACK
10
200
20
-60
40
5
50
-0
51
90
0
ARC
8
BLACK
10
90
20
-60
40
5
50
90
51
180
0
ARC
8
BLACK
10
90
20
-90
40
5
50
-180
51
-90
0
LINE
8
BLACK
6
CONTINUOUS
10
93.9
20
-63.9
11
96.1
21
-66.1
0
LINE
8
BLACK
6
CONTINUOUS
10
96.1
20
-63.9
11
93.9
21
-66.1
0
LINE
8
BLACK
6
CONTINUOUS
10
93.9
20
-83.9
11
96.1
21
-86.1
0
LINE
8
BLACK
6
CONTINUOUS
10
96.1
20
-83.9
11
93.9
21
-86.1
0
LINE
8
BLACK
6
CONTINUOUS
10
123.9
20
-63.9
11
126.1
21
-66.1
0
LINE
8
BLACK
6
CONTINUOUS
10
126.1
20
-63.9
11
123.9
21
-66.1
0
LINE
8
BLACK
6
CONTINUOUS
10
123.9
20
-83.9
11
126.1
21
-86.1
0
LINE
8
BLACK
6
CONTINUOUS
10
126.1
20
-83.9
11
123.9
21
-86.1
0
LINE
8
BLACK
6
CONTINUOUS
10
163.9
20
-63.9
11
166.1
21
-66.1
0
LINE
8
BLACK
6
CONTINUOUS
10
166.1
20
-63.9
11
163.9
21
-66.1
0
LINE
8
BLACK
6
CONTINUOUS
10
163.9
20
-83.9
11
166.1
21
-86.1
0
LINE
8
BLACK
6
CONTINUOUS
10
166.1
20
-83.9
11
163.9
21
-86.1
0
LINE
8
BLACK
6
CONTINUOUS
10
193.9
20
-63.9
11
196.1
21
-66.1
0
LINE
8
BLACK
6
CONTINUOUS
10
196.1
20
-63.9
11
193.9
21
-66.1
0
LINE
8
BLACK
6
CONTINUOUS
10
193.9
20
-83.9
11
196.1
21
-86.1
0
LINE
8
BLACK
6
CONTINUOUS
10
196.1
20
-83.9
11
193.9
21
-86.1
0
LINE
8
BLACK
6
CONTINUOUS
10
87.5262
20
-98.1548
11
87.5262
21
-96.1548
0
LINE
8
BLACK
6
CONTINUOUS
10
87.5262
20
-96.1548
11
88.0024
21
-96.1548
0
LINE
8
BLACK
6
CONTINUOUS
10
88.0024
20
-96.1548
11
88.2881
21
-96.25
0
LINE
8
BLACK
6
CONTINUOUS
10
88.2881
20
-96.25
11
88.4786
21
-96.4405
0
LINE
8
BLACK
6
CONTINUOUS
10
88.4786
20
-96.4405
11
88.5738
21
-96.631
0
LINE
8
BLACK
6
CONTINUOUS
10
88.5738
20
-96.631
11
88.669
21
-97.0119
0
LINE
8
BLACK
6
CONTINUOUS
10
88.669
20
-97.0119
11
88.669
21
-97.2976
0
LINE
8
BLACK
6
CONTINUOUS
10
88.669
20
-97.2976
11
88.5738
21
-97.6786
0
LINE
8
BLACK
6
CONTINUOUS
10
88.5738
20
-97.6786
11
88.4786
21
-97.869
0
LINE
8
BLACK
6
CONTINUOUS
10
88.4786
20
-97.869
11
88.2881
21
-98.0595
0
LINE
8
BLACK
6
CONTINUOUS
10
88.2881
20
-98.0595
11
88.0024
21
-98.1548
0
LINE
8
BLACK
6
CONTINUOUS
10
88.0024
20
-98.1548
11
87.5262
21
-98.1548
0
LINE
8
BLACK
6
CONTINUOUS
10
89.5262
20
-98.1548
11
89.5262
21
-96.8214
0
LINE
8
BLACK
6
CONTINUOUS
10
89.5262
20
-97.2024
11
89.6214
21
-97.0119
0
LINE
8
BLACK
6
CONTINUOUS
10
89.6214
20
-97.0119
11
89.7167
21
-96.9167
0
LINE
8
BLACK
6
CONTINUOUS
10
89.7167
20
-96.9167
11
89.9071
21
-96.8214
0
LINE
8
BLACK
6
CONTINUOUS
10
89.9071
20
-96.8214
11
90.0976
21
-96.8214
0
LINE
8
BLACK
6
CONTINUOUS
10
90.7643
20
-98.1548
11
90.7643
21
-96.8214
0
LINE
8
BLACK
6
CONTINUOUS
10
90.7643
20
-96.1548
11
90.669
21
-96.25
0
LINE
8
BLACK
6
CONTINUOUS
10
90.669
20
-96.25
11
90.7643
21
-96.3452
0
LINE
8
BLACK
6
CONTINUOUS
10
90.7643
20
-96.3452
11
90.8595
21
-96.25
0
LINE
8
BLACK
6
CONTINUOUS
10
90.8595
20
-96.25
11
90.7643
21
-96.1548
0
LINE
8
BLACK
6
CONTINUOUS
10
90.7643
20
-96.1548
11
90.7643
21
-96.3452
0
LINE
8
BLACK
6
CONTINUOUS
10
92.0024
20
-98.1548
11
91.8119
21
-98.0595
0
LINE
8
BLACK
6
CONTINUOUS
10
91.8119
20
-98.0595
11
91.7167
21
-97.869
0
LINE
8
BLACK
6
CONTINUOUS
10
91.7167
20
-97.869
11
91.7167
21
-96.1548
0
LINE
8
BLACK
6
CONTINUOUS
10
93.05
20
-98.1548
11
92.8595
21
-98.0595
0
LINE
8
BLACK
6
CONTINUOUS
10
92.8595
20
-98.0595
11
92.7643
21
-97.869
0
LINE
8
BLACK
6
CONTINUOUS
10
92.7643
20
-97.869
11
92.7643
21
-96.1548
0
LINE
8
BLACK
6
CONTINUOUS
10
95.3357
20
-98.1548
11
95.3357
21
-96.1548
0
LINE
8
BLACK
6
CONTINUOUS
10
95.3357
20
-96.1548
11
96.0024
21
-97.5833
0
LINE
8
BLACK
6
CONTINUOUS
10
96.0024
20
-97.5833
11
96.669
21
-96.1548
0
LINE
8
BLACK
6
CONTINUOUS
10
96.669
20
-96.1548
11
96.669
21
-98.1548
0
LINE
8
BLACK
6
CONTINUOUS
10
98.4786
20
-98.1548
11
98.4786
21
-97.1071
0
LINE
8
BLACK
6
CONTINUOUS
10
98.4786
20
-97.1071
11
98.3833
21
-96.9167
0
LINE
8
BLACK
6
CONTINUOUS
10
98.3833
20
-96.9167
11
98.1929
21
-96.8214
0
LINE
8
BLACK
6
CONTINUOUS
10
98.1929
20
-96.8214
11
97.8119
21
-96.8214
0
LINE
8
BLACK
6
CONTINUOUS
10
97.8119
20
-96.8214
11
97.6214
21
-96.9167
0
LINE
8
BLACK
6
CONTINUOUS
10
98.4786
20
-98.0595
11
98.2881
21
-98.1548
0
LINE
8
BLACK
6
CONTINUOUS
10
98.2881
20
-98.1548
11
97.8119
21
-98.1548
0
LINE
8
BLACK
6
CONTINUOUS
10
97.8119
20
-98.1548
11
97.6214
21
-98.0595
0
LINE
8
BLACK
6
CONTINUOUS
10
97.6214
20
-98.0595
11
97.5262
21
-97.869
0
LINE
8
BLACK
6
CONTINUOUS
10
97.5262
20
-97.869
11
97.5262
21
-97.6786
0
LINE
8
BLACK
6
CONTINUOUS
10
97.5262
20
-97.6786
11
97.6214
21
-97.4881
0
LINE
8
BLACK
6
CONTINUOUS
10
97.6214
20
-97.4881
11
97.8119
21
-97.3929
0
LINE
8
BLACK
6
CONTINUOUS
10
97.8119
20
-97.3929
11
98.2881
21
-97.3929
0
LINE
8
BLACK
6
CONTINUOUS
10
98.2881
20
-97.3929
11
98.4786
21
-97.2976
0
LINE
8
BLACK
6
CONTINUOUS
10
99.431
20
-96.8214
11
99.431
21
-98.8214
0
LINE
8
BLACK
6
CONTINUOUS
10
99.431
20
-96.9167
11
99.6214
21
-96.8214
0
LINE
8
BLACK
6
CONTINUOUS
10
99.6214
20
-96.8214
11
100.002
21
-96.8214
0
LINE
8
BLACK
6
CONTINUOUS
10
100.002
20
-96.8214
11
100.193
21
-96.9167
0
LINE
8
BLACK
6
CONTINUOUS
10
100.193
20
-96.9167
11
100.288
21
-97.0119
0
LINE
8
BLACK
6
CONTINUOUS
10
100.288
20
-97.0119
11
100.383
21
-97.2024
0
LINE
8
BLACK
6
CONTINUOUS
10
100.383
20
-97.2024
11
100.383
21
-97.7738
0
LINE
8
BLACK
6
CONTINUOUS
10
100.383
20
-97.7738
11
100.288
21
-97.9643
0
LINE
8
BLACK
6
CONTINUOUS
10
100.288
20
-97.9643
11
100.193
21
-98.0595
0
LINE
8
BLACK
6
CONTINUOUS
10
100.193
20
-98.0595
11
100.002
21
-98.1548
0
LINE
8
BLACK
6
CONTINUOUS
10
100.002
20
-98.1548
11
99.6214
21
-98.1548
0
LINE
8
BLACK
6
CONTINUOUS
10
99.6214
20
-98.1548
11
99.431
21
-98.0595
0
LINE
8
BLACK
6
CONTINUOUS
10
101.24
20
-97.9643
11
101.336
21
-98.0595
0
LINE
8
BLACK
6
CONTINUOUS
10
101.336
20
-98.0595
11
101.24
21
-98.1548
0
LINE
8
BLACK
6
CONTINUOUS
10
101.24
20
-98.1548
11
101.145
21
-98.0595
0
LINE
8
BLACK
6
CONTINUOUS
10
101.145
20
-98.0595
11
101.24
21
-97.9643
0
LINE
8
BLACK
6
CONTINUOUS
10
101.24
20
-97.9643
11
101.24
21
-98.1548
0
LINE
8
BLACK
6
CONTINUOUS
10
101.24
20
-96.9167
11
101.336
21
-97.0119
0
LINE
8
BLACK
6
CONTINUOUS
10
101.336
20
-97.0119
11
101.24
21
-97.1071
0
LINE
8
BLACK
6
CONTINUOUS
10
101.24
20
-97.1071
11
101.145
21
-97.0119
0
LINE
8
BLACK
6
CONTINUOUS
10
101.145
20
-97.0119
11
101.24
21
-96.9167
0
LINE
8
BLACK
6
CONTINUOUS
10
101.24
20
-96.9167
11
101.24
21
-97.1071
0
LINE
8
BLACK
6
CONTINUOUS
10
82.95
20
-100.45
11
84.95
21
-102.45
0
LINE
8
BLACK
6
CONTINUOUS
10
84.95
20
-100.45
11
82.95
21
-102.45
0
LINE
8
BLACK
6
CONTINUOUS
10
87.431
20
-100.545
11
87.5262
21
-100.45
0
LINE
8
BLACK
6
CONTINUOUS
10
87.5262
20
-100.45
11
87.7167
21
-100.355
0
LINE
8
BLACK
6
CONTINUOUS
10
87.7167
20
-100.355
11
88.1929
21
-100.355
0
LINE
8
BLACK
6
CONTINUOUS
10
88.1929
20
-100.355
11
88.3833
21
-100.45
0
LINE
8
BLACK
6
CONTINUOUS
10
88.3833
20
-100.45
11
88.4786
21
-100.545
0
LINE
8
BLACK
6
CONTINUOUS
10
88.4786
20
-100.545
11
88.5738
21
-100.736
0
LINE
8
BLACK
6
CONTINUOUS
10
88.5738
20
-100.736
11
88.5738
21
-100.926
0
LINE
8
BLACK
6
CONTINUOUS
10
88.5738
20
-100.926
11
88.4786
21
-101.212
0
LINE
8
BLACK
6
CONTINUOUS
10
88.4786
20
-101.212
11
87.3357
21
-102.355
0
LINE
8
BLACK
6
CONTINUOUS
10
87.3357
20
-102.355
11
88.5738
21
-102.355
0
LINE
8
BLACK
6
CONTINUOUS
10
89.431
20
-102.164
11
89.5262
21
-102.26
0
LINE
8
BLACK
6
CONTINUOUS
10
89.5262
20
-102.26
11
89.431
21
-102.355
0
LINE
8
BLACK
6
CONTINUOUS
10
89.431
20
-102.355
11
89.3357
21
-102.26
0
LINE
8
BLACK
6
CONTINUOUS
10
89.3357
20
-102.26
11
89.431
21
-102.164
0
LINE
8
BLACK
6
CONTINUOUS
10
89.431
20
-102.164
11
89.431
21
-102.355
0
LINE
8
BLACK
6
CONTINUOUS
10
90.2881
20
-100.545
11
90.3833
21
-100.45
0
LINE
8
BLACK
6
CONTINUOUS
10
90.3833
20
-100.45
11
90.5738
21
-100.355
0
LINE
8
BLACK
6
CONTINUOUS
10
90.5738
20
-100.355
11
91.05
21
-100.355
0
LINE
8
BLACK
6
CONTINUOUS
10
91.05
20
-100.355
11
91.2405
21
-100.45
0
LINE
8
BLACK
6
CONTINUOUS
10
91.2405
20
-100.45
11
91.3357
21
-100.545
0
LINE
8
BLACK
6
CONTINUOUS
10
91.3357
20
-100.545
11
91.431
21
-100.736
0
LINE
8
BLACK
6
CONTINUOUS
10
91.431
20
-100.736
11
91.431
21
-100.926
0
LINE
8
BLACK
6
CONTINUOUS
10
91.431
20
-100.926
11
91.3357
21
-101.212
0
LINE
8
BLACK
6
CONTINUOUS
10
91.3357
20
-101.212
11
90.1929
21
-102.355
0
LINE
8
BLACK
6
CONTINUOUS
10
90.1929
20
-102.355
11
91.431
21
-102.355
0
LINE
8
BLACK
6
CONTINUOUS
10
92.669
20
-100.355
11
92.8595
21
-100.355
0
LINE
8
BLACK
6
CONTINUOUS
10
92.8595
20
-100.355
11
93.05
21
-100.45
0
LINE
8
BLACK
6
CONTINUOUS
10
93.05
20
-100.45
11
93.1452
21
-100.545
0
LINE
8
BLACK
6
CONTINUOUS
10
93.1452
20
-100.545
11
93.2405
21
-100.736
0
LINE
8
BLACK
6
CONTINUOUS
10
93.2405
20
-100.736
11
93.3357
21
-101.117
0
LINE
8
BLACK
6
CONTINUOUS
10
93.3357
20
-101.117
11
93.3357
21
-101.593
0
LINE
8
BLACK
6
CONTINUOUS
10
93.3357
20
-101.593
11
93.2405
21
-101.974
0
LINE
8
BLACK
6
CONTINUOUS
10
93.2405
20
-101.974
11
93.1452
21
-102.164
0
LINE
8
BLACK
6
CONTINUOUS
10
93.1452
20
-102.164
11
93.05
21
-102.26
0
LINE
8
BLACK
6
CONTINUOUS
10
93.05
20
-102.26
11
92.8595
21
-102.355
0
LINE
8
BLACK
6
CONTINUOUS
10
92.8595
20
-102.355
11
92.669
21
-102.355
0
LINE
8
BLACK
6
CONTINUOUS
10
92.669
20
-102.355
11
92.4786
21
-102.26
0
LINE
8
BLACK
6
CONTINUOUS
10
92.4786
20
-102.26
11
92.3833
21
-102.164
0
LINE
8
BLACK
6
CONTINUOUS
10
92.3833
20
-102.164
11
92.2881
21
-101.974
0
LINE
8
BLACK
6
CONTINUOUS
10
92.2881
20
-101.974
11
92.1929
21
-101.593
0
LINE
8
BLACK
6
CONTINUOUS
10
92.1929
20
-101.593
11
92.1929
21
-101.117
0
LINE
8
BLACK
6
CONTINUOUS
10
92.1929
20
-101.117
11
92.2881
21
-100.736
0
LINE
8
BLACK
6
CONTINUOUS
10
92.2881
20
-100.736
11
92.3833
21
-100.545
0
LINE
8
BLACK
6
CONTINUOUS
10
92.3833
20
-100.545
11
92.4786
21
-100.45
0
LINE
8
BLACK
6
CONTINUOUS
10
92.4786
20
-100.45
11
92.669
21
-100.355
0
LINE
8
BLACK
6
CONTINUOUS
10
94.5738
20
-100.355
11
94.7643
21
-100.355
0
LINE
8
BLACK
6
CONTINUOUS
10
94.7643
20
-100.355
11
94.9548
21
-100.45
0
LINE
8
BLACK
6
CONTINUOUS
10
94.9548
20
-100.45
11
95.05
21
-100.545
0
LINE
8
BLACK
6
CONTINUOUS
10
95.05
20
-100.545
11
95.1452
21
-100.736
0
LINE
8
BLACK
6
CONTINUOUS
10
95.1452
20
-100.736
11
95.2405
21
-101.117
0
LINE
8
BLACK
6
CONTINUOUS
10
95.2405
20
-101.117
11
95.2405
21
-101.593
0
LINE
8
BLACK
6
CONTINUOUS
10
95.2405
20
-101.593
11
95.1452
21
-101.974
0
LINE
8
BLACK
6
CONTINUOUS
10
95.1452
20
-101.974
11
95.05
21
-102.164
0
LINE
8
BLACK
6
CONTINUOUS
10
95.05
20
-102.164
11
94.9548
21
-102.26
0
LINE
8
BLACK
6
CONTINUOUS
10
94.9548
20
-102.26
11
94.7643
21
-102.355
0
LINE
8
BLACK
6
CONTINUOUS
10
94.7643
20
-102.355
11
94.5738
21
-102.355
0
LINE
8
BLACK
6
CONTINUOUS
10
94.5738
20
-102.355
11
94.3833
21
-102.26
0
LINE
8
BLACK
6
CONTINUOUS
10
94.3833
20
-102.26
11
94.2881
21
-102.164
0
LINE
8
BLACK
6
CONTINUOUS
10
94.2881
20
-102.164
11
94.1929
21
-101.974
0
LINE
8
BLACK
6
CONTINUOUS
10
94.1929
20
-101.974
11
94.0976
21
-101.593
0
LINE
8
BLACK
6
CONTINUOUS
10
94.0976
20
-101.593
11
94.0976
21
-101.117
0
LINE
8
BLACK
6
CONTINUOUS
10
94.0976
20
-101.117
11
94.1929
21
-100.736
0
LINE
8
BLACK
6
CONTINUOUS
10
94.1929
20
-100.736
11
94.2881
21
-100.545
0
LINE
8
BLACK
6
CONTINUOUS
10
94.2881
20
-100.545
11
94.3833
21
-100.45
0
LINE
8
BLACK
6
CONTINUOUS
10
94.3833
20
-100.45
11
94.5738
21
-100.355
0
LINE
8
BLACK
6
CONTINUOUS
10
96.0976
20
-102.355
11
96.0976
21
-101.021
0
LINE
8
BLACK
6
CONTINUOUS
10
96.0976
20
-101.212
11
96.1929
21
-101.117
0
LINE
8
BLACK
6
CONTINUOUS
10
96.1929
20
-101.117
11
96.3833
21
-101.021
0
LINE
8
BLACK
6
CONTINUOUS
10
96.3833
20
-101.021
11
96.669
21
-101.021
0
LINE
8
BLACK
6
CONTINUOUS
10
96.669
20
-101.021
11
96.8595
21
-101.117
0
LINE
8
BLACK
6
CONTINUOUS
10
96.8595
20
-101.117
11
96.9548
21
-101.307
0
LINE
8
BLACK
6
CONTINUOUS
10
96.9548
20
-101.307
11
96.9548
21
-102.355
0
LINE
8
BLACK
6
CONTINUOUS
10
96.9548
20
-101.307
11
97.05
21
-101.117
0
LINE
8
BLACK
6
CONTINUOUS
10
97.05
20
-101.117
11
97.2405
21
-101.021
0
LINE
8
BLACK
6
CONTINUOUS
10
97.2405
20
-101.021
11
97.5262
21
-101.021
0
LINE
8
BLACK
6
CONTINUOUS
10
97.5262
20
-101.021
11
97.7167
21
-101.117
0
LINE
8
BLACK
6
CONTINUOUS
10
97.7167
20
-101.117
11
97.8119
21
-101.307
0
LINE
8
BLACK
6
CONTINUOUS
10
97.8119
20
-101.307
11
97.8119
21
-102.355
0
LINE
8
BLACK
6
CONTINUOUS
10
98.7643
20
-102.355
11
98.7643
21
-101.021
0
LINE
8
BLACK
6
CONTINUOUS
10
98.7643
20
-101.212
11
98.8595
21
-101.117
0
LINE
8
BLACK
6
CONTINUOUS
10
98.8595
20
-101.117
11
99.05
21
-101.021
0
LINE
8
BLACK
6
CONTINUOUS
10
99.05
20
-101.021
11
99.3357
21
-101.021
0
LINE
8
BLACK
6
CONTINUOUS
10
99.3357
20
-101.021
11
99.5262
21
-101.117
0
LINE
8
BLACK
6
CONTINUOUS
10
99.5262
20
-101.117
11
99.6214
21
-101.307
0
LINE
8
BLACK
6
CONTINUOUS
10
99.6214
20
-101.307
11
99.6214
21
-102.355
0
LINE
8
BLACK
6
CONTINUOUS
10
99.6214
20
-101.307
11
99.7167
21
-101.117
0
LINE
8
BLACK
6
CONTINUOUS
10
99.7167
20
-101.117
11
99.9071
21
-101.021
0
LINE
8
BLACK
6
CONTINUOUS
10
99.9071
20
-101.021
11
100.193
21
-101.021
0
LINE
8
BLACK
6
CONTINUOUS
10
100.193
20
-101.021
11
100.383
21
-101.117
0
LINE
8
BLACK
6
CONTINUOUS
10
100.383
20
-101.117
11
100.479
21
-101.307
0
LINE
8
BLACK
6
CONTINUOUS
10
100.479
20
-101.307
11
100.479
21
-102.355
0
LINE
8
BLACK
6
CONTINUOUS
10
104.383
20
-100.26
11
102.669
21
-102.831
0
LINE
8
BLACK
6
CONTINUOUS
10
106.955
20
-100.355
11
107.145
21
-100.355
0
LINE
8
BLACK
6
CONTINUOUS
10
107.145
20
-100.355
11
107.336
21
-100.45
0
LINE
8
BLACK
6
CONTINUOUS
10
107.336
20
-100.45
11
107.431
21
-100.545
0
LINE
8
BLACK
6
CONTINUOUS
10
107.431
20
-100.545
11
107.526
21
-100.736
0
LINE
8
BLACK
6
CONTINUOUS
10
107.526
20
-100.736
11
107.621
21
-101.117
0
LINE
8
BLACK
6
CONTINUOUS
10
107.621
20
-101.117
11
107.621
21
-101.593
0
LINE
8
BLACK
6
CONTINUOUS
10
107.621
20
-101.593
11
107.526
21
-101.974
0
LINE
8
BLACK
6
CONTINUOUS
10
107.526
20
-101.974
11
107.431
21
-102.164
0
LINE
8
BLACK
6
CONTINUOUS
10
107.431
20
-102.164
11
107.336
21
-102.26
0
LINE
8
BLACK
6
CONTINUOUS
10
107.336
20
-102.26
11
107.145
21
-102.355
0
LINE
8
BLACK
6
CONTINUOUS
10
107.145
20
-102.355
11
106.955
21
-102.355
0
LINE
8
BLACK
6
CONTINUOUS
10
106.955
20
-102.355
11
106.764
21
-102.26
0
LINE
8
BLACK
6
CONTINUOUS
10
106.764
20
-102.26
11
106.669
21
-102.164
0
LINE
8
BLACK
6
CONTINUOUS
10
106.669
20
-102.164
11
106.574
21
-101.974
0
LINE
8
BLACK
6
CONTINUOUS
10
106.574
20
-101.974
11
106.479
21
-101.593
0
LINE
8
BLACK
6
CONTINUOUS
10
106.479
20
-101.593
11
106.479
21
-101.117
0
LINE
8
BLACK
6
CONTINUOUS
10
106.479
20
-101.117
11
106.574
21
-100.736
0
LINE
8
BLACK
6
CONTINUOUS
10
106.574
20
-100.736
11
106.669
21
-100.545
0
LINE
8
BLACK
6
CONTINUOUS
10
106.669
20
-100.545
11
106.764
21
-100.45
0
LINE
8
BLACK
6
CONTINUOUS
10
106.764
20
-100.45
11
106.955
21
-100.355
0
LINE
8
BLACK
6
CONTINUOUS
10
108.479
20
-102.164
11
108.574
21
-102.26
0
LINE
8
BLACK
6
CONTINUOUS
10
108.574
20
-102.26
11
108.479
21
-102.355
0
LINE
8
BLACK
6
CONTINUOUS
10
108.479
20
-102.355
11
108.383
21
-102.26
0
LINE
8
BLACK
6
CONTINUOUS
10
108.383
20
-102.26
11
108.479
21
-102.164
0
LINE
8
BLACK
6
CONTINUOUS
10
108.479
20
-102.164
11
108.479
21
-102.355
0
LINE
8
BLACK
6
CONTINUOUS
10
109.812
20
-100.355
11
110.002
21
-100.355
0
LINE
8
BLACK
6
CONTINUOUS
10
110.002
20
-100.355
11
110.193
21
-100.45
0
LINE
8
BLACK
6
CONTINUOUS
10
110.193
20
-100.45
11
110.288
21
-100.545
0
LINE
8
BLACK
6
CONTINUOUS
10
110.288
20
-100.545
11
110.383
21
-100.736
0
LINE
8
BLACK
6
CONTINUOUS
10
110.383
20
-100.736
11
110.479
21
-101.117
0
LINE
8
BLACK
6
CONTINUOUS
10
110.479
20
-101.117
11
110.479
21
-101.593
0
LINE
8
BLACK
6
CONTINUOUS
10
110.479
20
-101.593
11
110.383
21
-101.974
0
LINE
8
BLACK
6
CONTINUOUS
10
110.383
20
-101.974
11
110.288
21
-102.164
0
LINE
8
BLACK
6
CONTINUOUS
10
110.288
20
-102.164
11
110.193
21
-102.26
0
LINE
8
BLACK
6
CONTINUOUS
10
110.193
20
-102.26
11
110.002
21
-102.355
0
LINE
8
BLACK
6
CONTINUOUS
10
110.002
20
-102.355
11
109.812
21
-102.355
0
LINE
8
BLACK
6
CONTINUOUS
10
109.812
20
-102.355
11
109.621
21
-102.26
0
LINE
8
BLACK
6
CONTINUOUS
10
109.621
20
-102.26
11
109.526
21
-102.164
0
LINE
8
BLACK
6
CONTINUOUS
10
109.526
20
-102.164
11
109.431
21
-101.974
0
LINE
8
BLACK
6
CONTINUOUS
10
109.431
20
-101.974
11
109.336
21
-101.593
0
LINE
8
BLACK
6
CONTINUOUS
10
109.336
20
-101.593
11
109.336
21
-101.117
0
LINE
8
BLACK
6
CONTINUOUS
10
109.336
20
-101.117
11
109.431
21
-100.736
0
LINE
8
BLACK
6
CONTINUOUS
10
109.431
20
-100.736
11
109.526
21
-100.545
0
LINE
8
BLACK
6
CONTINUOUS
10
109.526
20
-100.545
11
109.621
21
-100.45
0
LINE
8
BLACK
6
CONTINUOUS
10
109.621
20
-100.45
11
109.812
21
-100.355
0
LINE
8
BLACK
6
CONTINUOUS
10
111.621
20
-101.212
11
111.431
21
-101.117
0
LINE
8
BLACK
6
CONTINUOUS
10
111.431
20
-101.117
11
111.336
21
-101.021
0
LINE
8
BLACK
6
CONTINUOUS
10
111.336
20
-101.021
11
111.24
21
-100.831
0
LINE
8
BLACK
6
CONTINUOUS
10
111.24
20
-100.831
11
111.24
21
-100.736
0
LINE
8
BLACK
6
CONTINUOUS
10
111.24
20
-100.736
11
111.336
21
-100.545
0
LINE
8
BLACK
6
CONTINUOUS
10
111.336
20
-100.545
11
111.431
21
-100.45
0
LINE
8
BLACK
6
CONTINUOUS
10
111.431
20
-100.45
11
111.621
21
-100.355
0
LINE
8
BLACK
6
CONTINUOUS
10
111.621
20
-100.355
11
112.002
21
-100.355
0
LINE
8
BLACK
6
CONTINUOUS
10
112.002
20
-100.355
11
112.193
21
-100.45
0
LINE
8
BLACK
6
CONTINUOUS
10
112.193
20
-100.45
11
112.288
21
-100.545
0
LINE
8
BLACK
6
CONTINUOUS
10
112.288
20
-100.545
11
112.383
21
-100.736
0
LINE
8
BLACK
6
CONTINUOUS
10
112.383
20
-100.736
11
112.383
21
-100.831
0
LINE
8
BLACK
6
CONTINUOUS
10
112.383
20
-100.831
11
112.288
21
-101.021
0
LINE
8
BLACK
6
CONTINUOUS
10
112.288
20
-101.021
11
112.193
21
-101.117
0
LINE
8
BLACK
6
CONTINUOUS
10
112.193
20
-101.117
11
112.002
21
-101.212
0
LINE
8
BLACK
6
CONTINUOUS
10
112.002
20
-101.212
11
111.621
21
-101.212
0
LINE
8
BLACK
6
CONTINUOUS
10
111.621
20
-101.212
11
111.431
21
-101.307
0
LINE
8
BLACK
6
CONTINUOUS
10
111.431
20
-101.307
11
111.336
21
-101.402
0
LINE
8
BLACK
6
CONTINUOUS
10
111.336
20
-101.402
11
111.24
21
-101.593
0
LINE
8
BLACK
6
CONTINUOUS
10
111.24
20
-101.593
11
111.24
21
-101.974
0
LINE
8
BLACK
6
CONTINUOUS
10
111.24
20
-101.974
11
111.336
21
-102.164
0
LINE
8
BLACK
6
CONTINUOUS
10
111.336
20
-102.164
11
111.431
21
-102.26
0
LINE
8
BLACK
6
CONTINUOUS
10
111.431
20
-102.26
11
111.621
21
-102.355
0
LINE
8
BLACK
6
CONTINUOUS
10
111.621
20
-102.355
11
112.002
21
-102.355
0
LINE
8
BLACK
6
CONTINUOUS
10
112.002
20
-102.355
11
112.193
21
-102.26
0
LINE
8
BLACK
6
CONTINUOUS
10
112.193
20
-102.26
11
112.288
21
-102.164
0
LINE
8
BLACK
6
CONTINUOUS
10
112.288
20
-102.164
11
112.383
21
-101.974
0
LINE
8
BLACK
6
CONTINUOUS
10
112.383
20
-101.974
11
112.383
21
-101.593
0
LINE
8
BLACK
6
CONTINUOUS
10
112.383
20
-101.593
11
112.288
21
-101.402
0
LINE
8
BLACK
6
CONTINUOUS
10
112.288
20
-101.402
11
112.193
21
-101.307
0
LINE
8
BLACK
6
CONTINUOUS
10
112.193
20
-101.307
11
112.002
21
-101.212
0
LINE
8
BLACK
6
CONTINUOUS
10
114.098
20
-100.355
11
113.717
21
-100.355
0
LINE
8
BLACK
6
CONTINUOUS
10
113.717
20
-100.355
11
113.526
21
-100.45
0
LINE
8
BLACK
6
CONTINUOUS
10
113.526
20
-100.45
11
113.431
21
-100.545
0
LINE
8
BLACK
6
CONTINUOUS
10
113.431
20
-100.545
11
113.24
21
-100.831
0
LINE
8
BLACK
6
CONTINUOUS
10
113.24
20
-100.831
11
113.145
21
-101.212
0
LINE
8
BLACK
6
CONTINUOUS
10
113.145
20
-101.212
11
113.145
21
-101.974
0
LINE
8
BLACK
6
CONTINUOUS
10
113.145
20
-101.974
11
113.24
21
-102.164
0
LINE
8
BLACK
6
CONTINUOUS
10
113.24
20
-102.164
11
113.336
21
-102.26
0
LINE
8
BLACK
6
CONTINUOUS
10
113.336
20
-102.26
11
113.526
21
-102.355
0
LINE
8
BLACK
6
CONTINUOUS
10
113.526
20
-102.355
11
113.907
21
-102.355
0
LINE
8
BLACK
6
CONTINUOUS
10
113.907
20
-102.355
11
114.098
21
-102.26
0
LINE
8
BLACK
6
CONTINUOUS
10
114.098
20
-102.26
11
114.193
21
-102.164
0
LINE
8
BLACK
6
CONTINUOUS
10
114.193
20
-102.164
11
114.288
21
-101.974
0
LINE
8
BLACK
6
CONTINUOUS
10
114.288
20
-101.974
11
114.288
21
-101.498
0
LINE
8
BLACK
6
CONTINUOUS
10
114.288
20
-101.498
11
114.193
21
-101.307
0
LINE
8
BLACK
6
CONTINUOUS
10
114.193
20
-101.307
11
114.098
21
-101.212
0
LINE
8
BLACK
6
CONTINUOUS
10
114.098
20
-101.212
11
113.907
21
-101.117
0
LINE
8
BLACK
6
CONTINUOUS
10
113.907
20
-101.117
11
113.526
21
-101.117
0
LINE
8
BLACK
6
CONTINUOUS
10
113.526
20
-101.117
11
113.336
21
-101.212
0
LINE
8
BLACK
6
CONTINUOUS
10
113.336
20
-101.212
11
113.24
21
-101.307
0
LINE
8
BLACK
6
CONTINUOUS
10
113.24
20
-101.307
11
113.145
21
-101.498
0
LINE
8
BLACK
6
CONTINUOUS
10
116.002
20
-100.355
11
115.621
21
-100.355
0
LINE
8
BLACK
6
CONTINUOUS
10
115.621
20
-100.355
11
115.431
21
-100.45
0
LINE
8
BLACK
6
CONTINUOUS
10
115.431
20
-100.45
11
115.336
21
-100.545
0
LINE
8
BLACK
6
CONTINUOUS
10
115.336
20
-100.545
11
115.145
21
-100.831
0
LINE
8
BLACK
6
CONTINUOUS
10
115.145
20
-100.831
11
115.05
21
-101.212
0
LINE
8
BLACK
6
CONTINUOUS
10
115.05
20
-101.212
11
115.05
21
-101.974
0
LINE
8
BLACK
6
CONTINUOUS
10
115.05
20
-101.974
11
115.145
21
-102.164
0
LINE
8
BLACK
6
CONTINUOUS
10
115.145
20
-102.164
11
115.24
21
-102.26
0
LINE
8
BLACK
6
CONTINUOUS
10
115.24
20
-102.26
11
115.431
21
-102.355
0
LINE
8
BLACK
6
CONTINUOUS
10
115.431
20
-102.355
11
115.812
21
-102.355
0
LINE
8
BLACK
6
CONTINUOUS
10
115.812
20
-102.355
11
116.002
21
-102.26
0
LINE
8
BLACK
6
CONTINUOUS
10
116.002
20
-102.26
11
116.098
21
-102.164
0
LINE
8
BLACK
6
CONTINUOUS
10
116.098
20
-102.164
11
116.193
21
-101.974
0
LINE
8
BLACK
6
CONTINUOUS
10
116.193
20
-101.974
11
116.193
21
-101.498
0
LINE
8
BLACK
6
CONTINUOUS
10
116.193
20
-101.498
11
116.098
21
-101.307
0
LINE
8
BLACK
6
CONTINUOUS
10
116.098
20
-101.307
11
116.002
21
-101.212
0
LINE
8
BLACK
6
CONTINUOUS
10
116.002
20
-101.212
11
115.812
21
-101.117
0
LINE
8
BLACK
6
CONTINUOUS
10
115.812
20
-101.117
11
115.431
21
-101.117
0
LINE
8
BLACK
6
CONTINUOUS
10
115.431
20
-101.117
11
115.24
21
-101.212
0
LINE
8
BLACK
6
CONTINUOUS
10
115.24
20
-101.212
11
115.145
21
-101.307
0
LINE
8
BLACK
6
CONTINUOUS
10
115.145
20
-101.307
11
115.05
21
-101.498
0
LINE
8
BLACK
6
CONTINUOUS
10
116.955
20
-100.355
11
116.955
21
-100.736
0
LINE
8
BLACK
6
CONTINUOUS
10
117.717
20
-100.355
11
117.717
21
-100.736
0
LINE
8
BLACK
6
CONTINUOUS
10
120.669
20
-103.117
11
120.574
21
-103.021
0
LINE
8
BLACK
6
CONTINUOUS
10
120.574
20
-103.021
11
120.383
21
-102.736
0
LINE
8
BLACK
6
CONTINUOUS
10
120.383
20
-102.736
11
120.288
21
-102.545
0
LINE
8
BLACK
6
CONTINUOUS
10
120.288
20
-102.545
11
120.193
21
-102.26
0
LINE
8
BLACK
6
CONTINUOUS
10
120.193
20
-102.26
11
120.098
21
-101.783
0
LINE
8
BLACK
6
CONTINUOUS
10
120.098
20
-101.783
11
120.098
21
-101.402
0
LINE
8
BLACK
6
CONTINUOUS
10
120.098
20
-101.402
11
120.193
21
-100.926
0
LINE
8
BLACK
6
CONTINUOUS
10
120.193
20
-100.926
11
120.288
21
-100.64
0
LINE
8
BLACK
6
CONTINUOUS
10
120.288
20
-100.64
11
120.383
21
-100.45
0
LINE
8
BLACK
6
CONTINUOUS
10
120.383
20
-100.45
11
120.574
21
-100.164
0
LINE
8
BLACK
6
CONTINUOUS
10
120.574
20
-100.164
11
120.669
21
-100.069
0
LINE
8
BLACK
6
CONTINUOUS
10
121.717
20
-101.212
11
121.526
21
-101.117
0
LINE
8
BLACK
6
CONTINUOUS
10
121.526
20
-101.117
11
121.431
21
-101.021
0
LINE
8
BLACK
6
CONTINUOUS
10
121.431
20
-101.021
11
121.336
21
-100.831
0
LINE
8
BLACK
6
CONTINUOUS
10
121.336
20
-100.831
11
121.336
21
-100.736
0
LINE
8
BLACK
6
CONTINUOUS
10
121.336
20
-100.736
11
121.431
21
-100.545
0
LINE
8
BLACK
6
CONTINUOUS
10
121.431
20
-100.545
11
121.526
21
-100.45
0
LINE
8
BLACK
6
CONTINUOUS
10
121.526
20
-100.45
11
121.717
21
-100.355
0
LINE
8
BLACK
6
CONTINUOUS
10
121.717
20
-100.355
11
122.098
21
-100.355
0
LINE
8
BLACK
6
CONTINUOUS
10
122.098
20
-100.355
11
122.288
21
-100.45
0
LINE
8
BLACK
6
CONTINUOUS
10
122.288
20
-100.45
11
122.383
21
-100.545
0
LINE
8
BLACK
6
CONTINUOUS
10
122.383
20
-100.545
11
122.479
21
-100.736
0
LINE
8
BLACK
6
CONTINUOUS
10
122.479
20
-100.736
11
122.479
21
-100.831
0
LINE
8
BLACK
6
CONTINUOUS
10
122.479
20
-100.831
11
122.383
21
-101.021
0
LINE
8
BLACK
6
CONTINUOUS
10
122.383
20
-101.021
11
122.288
21
-101.117
0
LINE
8
BLACK
6
CONTINUOUS
10
122.288
20
-101.117
11
122.098
21
-101.212
0
LINE
8
BLACK
6
CONTINUOUS
10
122.098
20
-101.212
11
121.717
21
-101.212
0
LINE
8
BLACK
6
CONTINUOUS
10
121.717
20
-101.212
11
121.526
21
-101.307
0
LINE
8
BLACK
6
CONTINUOUS
10
121.526
20
-101.307
11
121.431
21
-101.402
0
LINE
8
BLACK
6
CONTINUOUS
10
121.431
20
-101.402
11
121.336
21
-101.593
0
LINE
8
BLACK
6
CONTINUOUS
10
121.336
20
-101.593
11
121.336
21
-101.974
0
LINE
8
BLACK
6
CONTINUOUS
10
121.336
20
-101.974
11
121.431
21
-102.164
0
LINE
8
BLACK
6
CONTINUOUS
10
121.431
20
-102.164
11
121.526
21
-102.26
0
LINE
8
BLACK
6
CONTINUOUS
10
121.526
20
-102.26
11
121.717
21
-102.355
0
LINE
8
BLACK
6
CONTINUOUS
10
121.717
20
-102.355
11
122.098
21
-102.355
0
LINE
8
BLACK
6
CONTINUOUS
10
122.098
20
-102.355
11
122.288
21
-102.26
0
LINE
8
BLACK
6
CONTINUOUS
10
122.288
20
-102.26
11
122.383
21
-102.164
0
LINE
8
BLACK
6
CONTINUOUS
10
122.383
20
-102.164
11
122.479
21
-101.974
0
LINE
8
BLACK
6
CONTINUOUS
10
122.479
20
-101.974
11
122.479
21
-101.593
0
LINE
8
BLACK
6
CONTINUOUS
10
122.479
20
-101.593
11
122.383
21
-101.402
0
LINE
8
BLACK
6
CONTINUOUS
10
122.383
20
-101.402
11
122.288
21
-101.307
0
LINE
8
BLACK
6
CONTINUOUS
10
122.288
20
-101.307
11
122.098
21
-101.212
0
LINE
8
BLACK
6
CONTINUOUS
10
124.86
20
-102.355
11
124.86
21
-100.355
0
LINE
8
BLACK
6
CONTINUOUS
10
125.717
20
-102.355
11
125.717
21
-101.307
0
LINE
8
BLACK
6
CONTINUOUS
10
125.717
20
-101.307
11
125.621
21
-101.117
0
LINE
8
BLACK
6
CONTINUOUS
10
125.621
20
-101.117
11
125.431
21
-101.021
0
LINE
8
BLACK
6
CONTINUOUS
10
125.431
20
-101.021
11
125.145
21
-101.021
0
LINE
8
BLACK
6
CONTINUOUS
10
125.145
20
-101.021
11
124.955
21
-101.117
0
LINE
8
BLACK
6
CONTINUOUS
10
124.955
20
-101.117
11
124.86
21
-101.212
0
LINE
8
BLACK
6
CONTINUOUS
10
126.955
20
-102.355
11
126.764
21
-102.26
0
LINE
8
BLACK
6
CONTINUOUS
10
126.764
20
-102.26
11
126.669
21
-102.164
0
LINE
8
BLACK
6
CONTINUOUS
10
126.669
20
-102.164
11
126.574
21
-101.974
0
LINE
8
BLACK
6
CONTINUOUS
10
126.574
20
-101.974
11
126.574
21
-101.402
0
LINE
8
BLACK
6
CONTINUOUS
10
126.574
20
-101.402
11
126.669
21
-101.212
0
LINE
8
BLACK
6
CONTINUOUS
10
126.669
20
-101.212
11
126.764
21
-101.117
0
LINE
8
BLACK
6
CONTINUOUS
10
126.764
20
-101.117
11
126.955
21
-101.021
0
LINE
8
BLACK
6
CONTINUOUS
10
126.955
20
-101.021
11
127.24
21
-101.021
0
LINE
8
BLACK
6
CONTINUOUS
10
127.24
20
-101.021
11
127.431
21
-101.117
0
LINE
8
BLACK
6
CONTINUOUS
10
127.431
20
-101.117
11
127.526
21
-101.212
0
LINE
8
BLACK
6
CONTINUOUS
10
127.526
20
-101.212
11
127.621
21
-101.402
0
LINE
8
BLACK
6
CONTINUOUS
10
127.621
20
-101.402
11
127.621
21
-101.974
0
LINE
8
BLACK
6
CONTINUOUS
10
127.621
20
-101.974
11
127.526
21
-102.164
0
LINE
8
BLACK
6
CONTINUOUS
10
127.526
20
-102.164
11
127.431
21
-102.26
0
LINE
8
BLACK
6
CONTINUOUS
10
127.431
20
-102.26
11
127.24
21
-102.355
0
LINE
8
BLACK
6
CONTINUOUS
10
127.24
20
-102.355
11
126.955
21
-102.355
0
LINE
8
BLACK
6
CONTINUOUS
10
128.764
20
-102.355
11
128.574
21
-102.26
0
LINE
8
BLACK
6
CONTINUOUS
10
128.574
20
-102.26
11
128.479
21
-102.069
0
LINE
8
BLACK
6
CONTINUOUS
10
128.479
20
-102.069
11
128.479
21
-100.355
0
LINE
8
BLACK
6
CONTINUOUS
10
130.288
20
-102.26
11
130.098
21
-102.355
0
LINE
8
BLACK
6
CONTINUOUS
10
130.098
20
-102.355
11
129.717
21
-102.355
0
LINE
8
BLACK
6
CONTINUOUS
10
129.717
20
-102.355
11
129.526
21
-102.26
0
LINE
8
BLACK
6
CONTINUOUS
10
129.526
20
-102.26
11
129.431
21
-102.069
0
LINE
8
BLACK
6
CONTINUOUS
10
129.431
20
-102.069
11
129.431
21
-101.307
0
LINE
8
BLACK
6
CONTINUOUS
10
129.431
20
-101.307
11
129.526
21
-101.117
0
LINE
8
BLACK
6
CONTINUOUS
10
129.526
20
-101.117
11
129.717
21
-101.021
0
LINE
8
BLACK
6
CONTINUOUS
10
129.717
20
-101.021
11
130.098
21
-101.021
0
LINE
8
BLACK
6
CONTINUOUS
10
130.098
20
-101.021
11
130.288
21
-101.117
0
LINE
8
BLACK
6
CONTINUOUS
10
130.288
20
-101.117
11
130.383
21
-101.307
0
LINE
8
BLACK
6
CONTINUOUS
10
130.383
20
-101.307
11
130.383
21
-101.498
0
LINE
8
BLACK
6
CONTINUOUS
10
130.383
20
-101.498
11
129.431
21
-101.688
0
LINE
8
BLACK
6
CONTINUOUS
10
131.145
20
-102.26
11
131.336
21
-102.355
0
LINE
8
BLACK
6
CONTINUOUS
10
131.336
20
-102.355
11
131.717
21
-102.355
0
LINE
8
BLACK
6
CONTINUOUS
10
131.717
20
-102.355
11
131.907
21
-102.26
0
LINE
8
BLACK
6
CONTINUOUS
10
131.907
20
-102.26
11
132.002
21
-102.069
0
LINE
8
BLACK
6
CONTINUOUS
10
132.002
20
-102.069
11
132.002
21
-101.974
0
LINE
8
BLACK
6
CONTINUOUS
10
132.002
20
-101.974
11
131.907
21
-101.783
0
LINE
8
BLACK
6
CONTINUOUS
10
131.907
20
-101.783
11
131.717
21
-101.688
0
LINE
8
BLACK
6
CONTINUOUS
10
131.717
20
-101.688
11
131.431
21
-101.688
0
LINE
8
BLACK
6
CONTINUOUS
10
131.431
20
-101.688
11
131.24
21
-101.593
0
LINE
8
BLACK
6
CONTINUOUS
10
131.24
20
-101.593
11
131.145
21
-101.402
0
LINE
8
BLACK
6
CONTINUOUS
10
131.145
20
-101.402
11
131.145
21
-101.307
0
LINE
8
BLACK
6
CONTINUOUS
10
131.145
20
-101.307
11
131.24
21
-101.117
0
LINE
8
BLACK
6
CONTINUOUS
10
131.24
20
-101.117
11
131.431
21
-101.021
0
LINE
8
BLACK
6
CONTINUOUS
10
131.431
20
-101.021
11
131.717
21
-101.021
0
LINE
8
BLACK
6
CONTINUOUS
10
131.717
20
-101.021
11
131.907
21
-101.117
0
LINE
8
BLACK
6
CONTINUOUS
10
132.669
20
-103.117
11
132.764
21
-103.021
0
LINE
8
BLACK
6
CONTINUOUS
10
132.764
20
-103.021
11
132.955
21
-102.736
0
LINE
8
BLACK
6
CONTINUOUS
10
132.955
20
-102.736
11
133.05
21
-102.545
0
LINE
8
BLACK
6
CONTINUOUS
10
133.05
20
-102.545
11
133.145
21
-102.26
0
LINE
8
BLACK
6
CONTINUOUS
10
133.145
20
-102.26
11
133.24
21
-101.783
0
LINE
8
BLACK
6
CONTINUOUS
10
133.24
20
-101.783
11
133.24
21
-101.402
0
LINE
8
BLACK
6
CONTINUOUS
10
133.24
20
-101.402
11
133.145
21
-100.926
0
LINE
8
BLACK
6
CONTINUOUS
10
133.145
20
-100.926
11
133.05
21
-100.64
0
LINE
8
BLACK
6
CONTINUOUS
10
133.05
20
-100.64
11
132.955
21
-100.45
0
LINE
8
BLACK
6
CONTINUOUS
10
132.955
20
-100.45
11
132.764
21
-100.164
0
LINE
8
BLACK
6
CONTINUOUS
10
132.764
20
-100.164
11
132.669
21
-100.069
0
LINE
8
BLACK
6
CONTINUOUS
10
136.288
20
-103.117
11
136.193
21
-103.021
0
LINE
8
BLACK
6
CONTINUOUS
10
136.193
20
-103.021
11
136.002
21
-102.736
0
LINE
8
BLACK
6
CONTINUOUS
10
136.002
20
-102.736
11
135.907
21
-102.545
0
LINE
8
BLACK
6
CONTINUOUS
10
135.907
20
-102.545
11
135.812
21
-102.26
0
LINE
8
BLACK
6
CONTINUOUS
10
135.812
20
-102.26
11
135.717
21
-101.783
0
LINE
8
BLACK
6
CONTINUOUS
10
135.717
20
-101.783
11
135.717
21
-101.402
0
LINE
8
BLACK
6
CONTINUOUS
10
135.717
20
-101.402
11
135.812
21
-100.926
0
LINE
8
BLACK
6
CONTINUOUS
10
135.812
20
-100.926
11
135.907
21
-100.64
0
LINE
8
BLACK
6
CONTINUOUS
10
135.907
20
-100.64
11
136.002
21
-100.45
0
LINE
8
BLACK
6
CONTINUOUS
10
136.002
20
-100.45
11
136.193
21
-100.164
0
LINE
8
BLACK
6
CONTINUOUS
10
136.193
20
-100.164
11
136.288
21
-100.069
0
LINE
8
BLACK
6
CONTINUOUS
10
137.05
20
-101.021
11
137.05
21
-102.355
0
LINE
8
BLACK
6
CONTINUOUS
10
137.05
20
-101.212
11
137.145
21
-101.117
0
LINE
8
BLACK
6
CONTINUOUS
10
137.145
20
-101.117
11
137.336
21
-101.021
0
LINE
8
BLACK
6
CONTINUOUS
10
137.336
20
-101.021
11
137.621
21
-101.021
0
LINE
8
BLACK
6
CONTINUOUS
10
137.621
20
-101.021
11
137.812
21
-101.117
0
LINE
8
BLACK
6
CONTINUOUS
10
137.812
20
-101.117
11
137.907
21
-101.307
0
LINE
8
BLACK
6
CONTINUOUS
10
137.907
20
-101.307
11
137.907
21
-102.355
0
LINE
8
BLACK
6
CONTINUOUS
10
139.145
20
-102.355
11
138.955
21
-102.26
0
LINE
8
BLACK
6
CONTINUOUS
10
138.955
20
-102.26
11
138.86
21
-102.164
0
LINE
8
BLACK
6
CONTINUOUS
10
138.86
20
-102.164
11
138.764
21
-101.974
0
LINE
8
BLACK
6
CONTINUOUS
10
138.764
20
-101.974
11
138.764
21
-101.402
0
LINE
8
BLACK
6
CONTINUOUS
10
138.764
20
-101.402
11
138.86
21
-101.212
0
LINE
8
BLACK
6
CONTINUOUS
10
138.86
20
-101.212
11
138.955
21
-101.117
0
LINE
8
BLACK
6
CONTINUOUS
10
138.955
20
-101.117
11
139.145
21
-101.021
0
LINE
8
BLACK
6
CONTINUOUS
10
139.145
20
-101.021
11
139.431
21
-101.021
0
LINE
8
BLACK
6
CONTINUOUS
10
139.431
20
-101.021
11
139.621
21
-101.117
0
LINE
8
BLACK
6
CONTINUOUS
10
139.621
20
-101.117
11
139.717
21
-101.212
0
LINE
8
BLACK
6
CONTINUOUS
10
139.717
20
-101.212
11
139.812
21
-101.402
0
LINE
8
BLACK
6
CONTINUOUS
10
139.812
20
-101.402
11
139.812
21
-101.974
0
LINE
8
BLACK
6
CONTINUOUS
10
139.812
20
-101.974
11
139.717
21
-102.164
0
LINE
8
BLACK
6
CONTINUOUS
10
139.717
20
-102.164
11
139.621
21
-102.26
0
LINE
8
BLACK
6
CONTINUOUS
10
139.621
20
-102.26
11
139.431
21
-102.355
0
LINE
8
BLACK
6
CONTINUOUS
10
139.431
20
-102.355
11
139.145
21
-102.355
0
LINE
8
BLACK
6
CONTINUOUS
10
140.383
20
-101.021
11
141.145
21
-101.021
0
LINE
8
BLACK
6
CONTINUOUS
10
140.669
20
-100.355
11
140.669
21
-102.069
0
LINE
8
BLACK
6
CONTINUOUS
10
140.669
20
-102.069
11
140.764
21
-102.26
0
LINE
8
BLACK
6
CONTINUOUS
10
140.764
20
-102.26
11
140.955
21
-102.355
0
LINE
8
BLACK
6
CONTINUOUS
10
140.955
20
-102.355
11
141.145
21
-102.355
0
LINE
8
BLACK
6
CONTINUOUS
10
143.336
20
-101.021
11
143.336
21
-103.021
0
LINE
8
BLACK
6
CONTINUOUS
10
143.336
20
-101.117
11
143.526
21
-101.021
0
LINE
8
BLACK
6
CONTINUOUS
10
143.526
20
-101.021
11
143.907
21
-101.021
0
LINE
8
BLACK
6
CONTINUOUS
10
143.907
20
-101.021
11
144.098
21
-101.117
0
LINE
8
BLACK
6
CONTINUOUS
10
144.098
20
-101.117
11
144.193
21
-101.212
0
LINE
8
BLACK
6
CONTINUOUS
10
144.193
20
-101.212
11
144.288
21
-101.402
0
LINE
8
BLACK
6
CONTINUOUS
10
144.288
20
-101.402
11
144.288
21
-101.974
0
LINE
8
BLACK
6
CONTINUOUS
10
144.288
20
-101.974
11
144.193
21
-102.164
0
LINE
8
BLACK
6
CONTINUOUS
10
144.193
20
-102.164
11
144.098
21
-102.26
0
LINE
8
BLACK
6
CONTINUOUS
10
144.098
20
-102.26
11
143.907
21
-102.355
0
LINE
8
BLACK
6
CONTINUOUS
10
143.907
20
-102.355
11
143.526
21
-102.355
0
LINE
8
BLACK
6
CONTINUOUS
10
143.526
20
-102.355
11
143.336
21
-102.26
0
LINE
8
BLACK
6
CONTINUOUS
10
145.431
20
-102.355
11
145.24
21
-102.26
0
LINE
8
BLACK
6
CONTINUOUS
10
145.24
20
-102.26
11
145.145
21
-102.069
0
LINE
8
BLACK
6
CONTINUOUS
10
145.145
20
-102.069
11
145.145
21
-100.355
0
LINE
8
BLACK
6
CONTINUOUS
10
147.05
20
-102.355
11
147.05
21
-101.307
0
LINE
8
BLACK
6
CONTINUOUS
10
147.05
20
-101.307
11
146.955
21
-101.117
0
LINE
8
BLACK
6
CONTINUOUS
10
146.955
20
-101.117
11
146.764
21
-101.021
0
LINE
8
BLACK
6
CONTINUOUS
10
146.764
20
-101.021
11
146.383
21
-101.021
0
LINE
8
BLACK
6
CONTINUOUS
10
146.383
20
-101.021
11
146.193
21
-101.117
0
LINE
8
BLACK
6
CONTINUOUS
10
147.05
20
-102.26
11
146.86
21
-102.355
0
LINE
8
BLACK
6
CONTINUOUS
10
146.86
20
-102.355
11
146.383
21
-102.355
0
LINE
8
BLACK
6
CONTINUOUS
10
146.383
20
-102.355
11
146.193
21
-102.26
0
LINE
8
BLACK
6
CONTINUOUS
10
146.193
20
-102.26
11
146.098
21
-102.069
0
LINE
8
BLACK
6
CONTINUOUS
10
146.098
20
-102.069
11
146.098
21
-101.879
0
LINE
8
BLACK
6
CONTINUOUS
10
146.098
20
-101.879
11
146.193
21
-101.688
0
LINE
8
BLACK
6
CONTINUOUS
10
146.193
20
-101.688
11
146.383
21
-101.593
0
LINE
8
BLACK
6
CONTINUOUS
10
146.383
20
-101.593
11
146.86
21
-101.593
0
LINE
8
BLACK
6
CONTINUOUS
10
146.86
20
-101.593
11
147.05
21
-101.498
0
LINE
8
BLACK
6
CONTINUOUS
10
147.717
20
-101.021
11
148.479
21
-101.021
0
LINE
8
BLACK
6
CONTINUOUS
10
148.002
20
-100.355
11
148.002
21
-102.069
0
LINE
8
BLACK
6
CONTINUOUS
10
148.002
20
-102.069
11
148.098
21
-102.26
0
LINE
8
BLACK
6
CONTINUOUS
10
148.098
20
-102.26
11
148.288
21
-102.355
0
LINE
8
BLACK
6
CONTINUOUS
10
148.288
20
-102.355
11
148.479
21
-102.355
0
LINE
8
BLACK
6
CONTINUOUS
10
149.907
20
-102.26
11
149.717
21
-102.355
0
LINE
8
BLACK
6
CONTINUOUS
10
149.717
20
-102.355
11
149.336
21
-102.355
0
LINE
8
BLACK
6
CONTINUOUS
10
149.336
20
-102.355
11
149.145
21
-102.26
0
LINE
8
BLACK
6
CONTINUOUS
10
149.145
20
-102.26
11
149.05
21
-102.069
0
LINE
8
BLACK
6
CONTINUOUS
10
149.05
20
-102.069
11
149.05
21
-101.307
0
LINE
8
BLACK
6
CONTINUOUS
10
149.05
20
-101.307
11
149.145
21
-101.117
0
LINE
8
BLACK
6
CONTINUOUS
10
149.145
20
-101.117
11
149.336
21
-101.021
0
LINE
8
BLACK
6
CONTINUOUS
10
149.336
20
-101.021
11
149.717
21
-101.021
0
LINE
8
BLACK
6
CONTINUOUS
10
149.717
20
-101.021
11
149.907
21
-101.117
0
LINE
8
BLACK
6
CONTINUOUS
10
149.907
20
-101.117
11
150.002
21
-101.307
0
LINE
8
BLACK
6
CONTINUOUS
10
150.002
20
-101.307
11
150.002
21
-101.498
0
LINE
8
BLACK
6
CONTINUOUS
10
150.002
20
-101.498
11
149.05
21
-101.688
0
LINE
8
BLACK
6
CONTINUOUS
10
151.717
20
-102.355
11
151.717
21
-100.355
0
LINE
8
BLACK
6
CONTINUOUS
10
151.717
20
-102.26
11
151.526
21
-102.355
0
LINE
8
BLACK
6
CONTINUOUS
10
151.526
20
-102.355
11
151.145
21
-102.355
0
LINE
8
BLACK
6
CONTINUOUS
10
151.145
20
-102.355
11
150.955
21
-102.26
0
LINE
8
BLACK
6
CONTINUOUS
10
150.955
20
-102.26
11
150.86
21
-102.164
0
LINE
8
BLACK
6
CONTINUOUS
10
150.86
20
-102.164
11
150.764
21
-101.974
0
LINE
8
BLACK
6
CONTINUOUS
10
150.764
20
-101.974
11
150.764
21
-101.402
0
LINE
8
BLACK
6
CONTINUOUS
10
150.764
20
-101.402
11
150.86
21
-101.212
0
LINE
8
BLACK
6
CONTINUOUS
10
150.86
20
-101.212
11
150.955
21
-101.117
0
LINE
8
BLACK
6
CONTINUOUS
10
150.955
20
-101.117
11
151.145
21
-101.021
0
LINE
8
BLACK
6
CONTINUOUS
10
151.145
20
-101.021
11
151.526
21
-101.021
0
LINE
8
BLACK
6
CONTINUOUS
10
151.526
20
-101.021
11
151.717
21
-101.117
0
LINE
8
BLACK
6
CONTINUOUS
10
152.479
20
-103.117
11
152.574
21
-103.021
0
LINE
8
BLACK
6
CONTINUOUS
10
152.574
20
-103.021
11
152.764
21
-102.736
0
LINE
8
BLACK
6
CONTINUOUS
10
152.764
20
-102.736
11
152.86
21
-102.545
0
LINE
8
BLACK
6
CONTINUOUS
10
152.86
20
-102.545
11
152.955
21
-102.26
0
LINE
8
BLACK
6
CONTINUOUS
10
152.955
20
-102.26
11
153.05
21
-101.783
0
LINE
8
BLACK
6
CONTINUOUS
10
153.05
20
-101.783
11
153.05
21
-101.402
0
LINE
8
BLACK
6
CONTINUOUS
10
153.05
20
-101.402
11
152.955
21
-100.926
0
LINE
8
BLACK
6
CONTINUOUS
10
152.955
20
-100.926
11
152.86
21
-100.64
0
LINE
8
BLACK
6
CONTINUOUS
10
152.86
20
-100.64
11
152.764
21
-100.45
0
LINE
8
BLACK
6
CONTINUOUS
10
152.764
20
-100.45
11
152.574
21
-100.164
0
LINE
8
BLACK
6
CONTINUOUS
10
152.574
20
-100.164
11
152.479
21
-100.069
  0
ENDSEC
  0
EOF
